<svg width="406" height="487" viewBox="0 0 406 487" fill="none" xmlns="http://www.w3.org/2000/svg">
<path d="M97.5156 425.012H103.736C106.571 425.012 108.626 425.417 109.902 426.229C111.188 427.031 111.83 428.311 111.83 430.07C111.83 431.264 111.548 432.244 110.982 433.01C110.426 433.775 109.684 434.236 108.754 434.391V434.527C110.021 434.81 110.932 435.339 111.488 436.113C112.053 436.888 112.336 437.918 112.336 439.203C112.336 441.026 111.675 442.448 110.354 443.469C109.041 444.49 107.255 445 104.994 445H97.5156V425.012ZM101.754 432.928H104.215C105.363 432.928 106.193 432.75 106.703 432.395C107.223 432.039 107.482 431.451 107.482 430.631C107.482 429.865 107.2 429.318 106.635 428.99C106.079 428.653 105.195 428.484 103.982 428.484H101.754V432.928ZM101.754 436.291V441.5H104.516C105.682 441.5 106.544 441.277 107.1 440.83C107.656 440.383 107.934 439.7 107.934 438.779C107.934 437.12 106.749 436.291 104.379 436.291H101.754ZM121.91 432.395C121.026 432.395 120.333 432.677 119.832 433.242C119.331 433.798 119.044 434.591 118.971 435.621H124.822C124.804 434.591 124.535 433.798 124.016 433.242C123.496 432.677 122.794 432.395 121.91 432.395ZM122.498 445.273C120.037 445.273 118.114 444.594 116.728 443.236C115.343 441.878 114.65 439.955 114.65 437.467C114.65 434.906 115.288 432.928 116.564 431.533C117.85 430.13 119.622 429.428 121.883 429.428C124.043 429.428 125.725 430.043 126.928 431.273C128.131 432.504 128.732 434.204 128.732 436.373V438.396H118.875C118.92 439.581 119.271 440.507 119.928 441.172C120.584 441.837 121.504 442.17 122.689 442.17C123.61 442.17 124.48 442.074 125.301 441.883C126.121 441.691 126.978 441.386 127.871 440.967V444.193C127.142 444.558 126.363 444.827 125.533 445C124.704 445.182 123.692 445.273 122.498 445.273ZM135.873 445H131.703V423.727H135.873V445ZM150.67 445L150.109 443.045H149.89C149.444 443.756 148.81 444.307 147.99 444.699C147.17 445.082 146.235 445.273 145.187 445.273C143.392 445.273 142.038 444.795 141.127 443.838C140.215 442.872 139.76 441.486 139.76 439.682V429.715H143.929V438.643C143.929 439.745 144.125 440.575 144.517 441.131C144.909 441.678 145.534 441.951 146.39 441.951C147.557 441.951 148.4 441.564 148.92 440.789C149.439 440.005 149.699 438.711 149.699 436.906V429.715H153.869V445H150.67ZM171.509 445H167.34V436.072C167.34 434.969 167.153 434.145 166.779 433.598C166.414 433.042 165.836 432.764 165.043 432.764C163.976 432.764 163.202 433.156 162.718 433.939C162.235 434.723 161.994 436.013 161.994 437.809V445H157.824V429.715H161.009L161.57 431.67H161.802C162.213 430.968 162.805 430.421 163.58 430.029C164.355 429.628 165.243 429.428 166.246 429.428C168.534 429.428 170.083 430.175 170.894 431.67H171.263C171.674 430.959 172.275 430.408 173.068 430.016C173.87 429.624 174.772 429.428 175.775 429.428C177.507 429.428 178.815 429.874 179.699 430.768C180.592 431.652 181.039 433.074 181.039 435.033V445H176.855V436.072C176.855 434.969 176.668 434.145 176.295 433.598C175.93 433.042 175.351 432.764 174.558 432.764C173.537 432.764 172.772 433.128 172.261 433.857C171.76 434.587 171.509 435.744 171.509 437.33V445ZM201.472 445L200.666 442.922H200.556C199.854 443.806 199.13 444.421 198.382 444.768C197.644 445.105 196.678 445.273 195.484 445.273C194.016 445.273 192.859 444.854 192.011 444.016C191.173 443.177 190.753 441.983 190.753 440.434C190.753 438.811 191.319 437.617 192.449 436.852C193.588 436.077 195.302 435.648 197.589 435.566L200.242 435.484V434.814C200.242 433.265 199.449 432.49 197.863 432.49C196.641 432.49 195.206 432.859 193.556 433.598L192.175 430.781C193.934 429.861 195.885 429.4 198.027 429.4C200.078 429.4 201.65 429.847 202.744 430.74C203.837 431.633 204.384 432.992 204.384 434.814V445H201.472ZM200.242 437.918L198.628 437.973C197.416 438.009 196.514 438.228 195.921 438.629C195.329 439.03 195.033 439.641 195.033 440.461C195.033 441.637 195.707 442.225 197.056 442.225C198.022 442.225 198.793 441.947 199.367 441.391C199.95 440.835 200.242 440.096 200.242 439.176V437.918ZM213.111 445.273C211.315 445.273 209.902 444.576 208.872 443.182C207.852 441.787 207.341 439.855 207.341 437.385C207.341 434.878 207.861 432.928 208.9 431.533C209.948 430.13 211.388 429.428 213.22 429.428C215.143 429.428 216.611 430.175 217.622 431.67H217.759C217.55 430.531 217.445 429.514 217.445 428.621V423.727H221.628V445H218.429L217.622 443.018H217.445C216.497 444.521 215.052 445.273 213.111 445.273ZM214.574 441.951C215.64 441.951 216.419 441.641 216.912 441.021C217.413 440.402 217.686 439.349 217.732 437.863V437.412C217.732 435.771 217.477 434.596 216.966 433.885C216.465 433.174 215.645 432.818 214.505 432.818C213.576 432.818 212.851 433.215 212.331 434.008C211.821 434.792 211.566 435.936 211.566 437.439C211.566 438.943 211.826 440.074 212.345 440.83C212.865 441.577 213.608 441.951 214.574 441.951ZM235.277 445L234.47 442.922H234.361C233.659 443.806 232.934 444.421 232.187 444.768C231.449 445.105 230.482 445.273 229.288 445.273C227.821 445.273 226.663 444.854 225.816 444.016C224.977 443.177 224.558 441.983 224.558 440.434C224.558 438.811 225.123 437.617 226.253 436.852C227.393 436.077 229.106 435.648 231.394 435.566L234.046 435.484V434.814C234.046 433.265 233.253 432.49 231.667 432.49C230.446 432.49 229.01 432.859 227.361 433.598L225.98 430.781C227.739 429.861 229.689 429.4 231.831 429.4C233.882 429.4 235.454 429.847 236.548 430.74C237.642 431.633 238.189 432.992 238.189 434.814V445H235.277ZM234.046 437.918L232.433 437.973C231.221 438.009 230.318 438.228 229.726 438.629C229.133 439.03 228.837 439.641 228.837 440.461C228.837 441.637 229.512 442.225 230.861 442.225C231.827 442.225 232.597 441.947 233.171 441.391C233.755 440.835 234.046 440.096 234.046 439.176V437.918ZM253.769 445.273C251.973 445.273 250.56 444.576 249.53 443.182C248.51 441.787 247.999 439.855 247.999 437.385C247.999 434.878 248.519 432.928 249.558 431.533C250.606 430.13 252.046 429.428 253.878 429.428C255.801 429.428 257.269 430.175 258.28 431.67H258.417C258.208 430.531 258.103 429.514 258.103 428.621V423.727H262.286V445H259.087L258.28 443.018H258.103C257.155 444.521 255.71 445.273 253.769 445.273ZM255.232 441.951C256.298 441.951 257.077 441.641 257.57 441.021C258.071 440.402 258.344 439.349 258.39 437.863V437.412C258.39 435.771 258.135 434.596 257.624 433.885C257.123 433.174 256.303 432.818 255.163 432.818C254.234 432.818 253.509 433.215 252.989 434.008C252.479 434.792 252.224 435.936 252.224 437.439C252.224 438.943 252.484 440.074 253.003 440.83C253.523 441.577 254.265 441.951 255.232 441.951ZM275.935 445L275.128 442.922H275.019C274.317 443.806 273.592 444.421 272.845 444.768C272.107 445.105 271.14 445.273 269.946 445.273C268.479 445.273 267.321 444.854 266.474 444.016C265.635 443.177 265.216 441.983 265.216 440.434C265.216 438.811 265.781 437.617 266.911 436.852C268.051 436.077 269.764 435.648 272.052 435.566L274.704 435.484V434.814C274.704 433.265 273.911 432.49 272.325 432.49C271.104 432.49 269.668 432.859 268.019 433.598L266.638 430.781C268.397 429.861 270.347 429.4 272.489 429.4C274.54 429.4 276.112 429.847 277.206 430.74C278.3 431.633 278.847 432.992 278.847 434.814V445H275.935ZM274.704 437.918L273.091 437.973C271.879 438.009 270.976 438.228 270.384 438.629C269.791 439.03 269.495 439.641 269.495 440.461C269.495 441.637 270.17 442.225 271.519 442.225C272.485 442.225 273.255 441.947 273.829 441.391C274.413 440.835 274.704 440.096 274.704 439.176V437.918ZM289.173 441.951C289.902 441.951 290.777 441.792 291.798 441.473V444.576C290.759 445.041 289.483 445.273 287.97 445.273C286.302 445.273 285.085 444.854 284.319 444.016C283.563 443.168 283.185 441.901 283.185 440.215V432.846H281.189V431.082L283.485 429.688L284.689 426.461H287.355V429.715H291.634V432.846H287.355V440.215C287.355 440.807 287.519 441.245 287.847 441.527C288.184 441.81 288.626 441.951 289.173 441.951ZM304.188 445L303.382 442.922H303.272C302.571 443.806 301.846 444.421 301.099 444.768C300.36 445.105 299.394 445.273 298.2 445.273C296.733 445.273 295.575 444.854 294.727 444.016C293.889 443.177 293.47 441.983 293.47 440.434C293.47 438.811 294.035 437.617 295.165 436.852C296.304 436.077 298.018 435.648 300.306 435.566L302.958 435.484V434.814C302.958 433.265 302.165 432.49 300.579 432.49C299.358 432.49 297.922 432.859 296.272 433.598L294.892 430.781C296.651 429.861 298.601 429.4 300.743 429.4C302.794 429.4 304.366 429.847 305.46 430.74C306.554 431.633 307.101 432.992 307.101 434.814V445H304.188ZM302.958 437.918L301.345 437.973C300.132 438.009 299.23 438.228 298.638 438.629C298.045 439.03 297.749 439.641 297.749 440.461C297.749 441.637 298.423 442.225 299.772 442.225C300.739 442.225 301.509 441.947 302.083 441.391C302.666 440.835 302.958 440.096 302.958 439.176V437.918Z" fill="#212121"/>
<path d="M132.061 476.961C132.061 477.966 131.697 478.75 130.967 479.312C130.238 479.875 129.249 480.156 127.999 480.156C126.645 480.156 125.603 479.982 124.874 479.633V478.352C125.342 478.549 125.853 478.706 126.405 478.82C126.957 478.935 127.504 478.992 128.046 478.992C128.931 478.992 129.598 478.826 130.046 478.492C130.494 478.154 130.717 477.685 130.717 477.086C130.717 476.69 130.637 476.367 130.475 476.117C130.319 475.862 130.053 475.628 129.678 475.414C129.309 475.201 128.744 474.958 127.983 474.688C126.921 474.307 126.16 473.857 125.702 473.336C125.249 472.815 125.022 472.135 125.022 471.297C125.022 470.417 125.353 469.716 126.014 469.195C126.676 468.674 127.551 468.414 128.639 468.414C129.775 468.414 130.819 468.622 131.772 469.039L131.358 470.195C130.415 469.799 129.499 469.602 128.608 469.602C127.905 469.602 127.356 469.753 126.96 470.055C126.564 470.357 126.366 470.776 126.366 471.312C126.366 471.708 126.439 472.034 126.585 472.289C126.731 472.539 126.975 472.771 127.319 472.984C127.668 473.193 128.199 473.424 128.913 473.68C130.111 474.107 130.934 474.565 131.382 475.055C131.835 475.544 132.061 476.18 132.061 476.961ZM135.259 480H133.962V471.438H135.259V480ZM133.852 469.117C133.852 468.82 133.925 468.604 134.071 468.469C134.217 468.328 134.399 468.258 134.618 468.258C134.826 468.258 135.006 468.328 135.157 468.469C135.308 468.609 135.384 468.826 135.384 469.117C135.384 469.409 135.308 469.628 135.157 469.773C135.006 469.914 134.826 469.984 134.618 469.984C134.399 469.984 134.217 469.914 134.071 469.773C133.925 469.628 133.852 469.409 133.852 469.117ZM139.066 480H137.769V467.844H139.066V480ZM146.841 480L146.583 478.781H146.521C146.094 479.318 145.667 479.682 145.24 479.875C144.818 480.062 144.289 480.156 143.654 480.156C142.805 480.156 142.138 479.938 141.654 479.5C141.175 479.062 140.935 478.44 140.935 477.633C140.935 475.904 142.318 474.997 145.083 474.914L146.537 474.867V474.336C146.537 473.664 146.391 473.169 146.099 472.852C145.813 472.529 145.352 472.367 144.716 472.367C144.003 472.367 143.195 472.586 142.294 473.023L141.896 472.031C142.318 471.802 142.779 471.622 143.279 471.492C143.784 471.362 144.289 471.297 144.794 471.297C145.815 471.297 146.57 471.523 147.06 471.977C147.555 472.43 147.802 473.156 147.802 474.156V480H146.841ZM143.912 479.086C144.719 479.086 145.352 478.865 145.81 478.422C146.274 477.979 146.505 477.359 146.505 476.562V475.789L145.208 475.844C144.177 475.88 143.432 476.042 142.974 476.328C142.521 476.609 142.294 477.049 142.294 477.648C142.294 478.117 142.435 478.474 142.716 478.719C143.003 478.964 143.401 479.086 143.912 479.086ZM156.101 480V474.461C156.101 473.763 155.942 473.242 155.625 472.898C155.307 472.555 154.81 472.383 154.132 472.383C153.231 472.383 152.573 472.628 152.156 473.117C151.744 473.607 151.539 474.409 151.539 475.523V480H150.242V467.844H151.539V471.523C151.539 471.966 151.518 472.333 151.476 472.625H151.554C151.81 472.214 152.172 471.891 152.64 471.656C153.114 471.417 153.653 471.297 154.257 471.297C155.304 471.297 156.088 471.547 156.609 472.047C157.135 472.542 157.398 473.331 157.398 474.414V480H156.101ZM161.111 475.617C161.335 475.299 161.676 474.883 162.135 474.367L164.9 471.438H166.439L162.971 475.086L166.682 480H165.111L162.088 475.953L161.111 476.797V480H159.83V467.844H161.111V474.289C161.111 474.576 161.09 475.018 161.049 475.617H161.111ZM173.262 480L173.004 478.781H172.942C172.514 479.318 172.087 479.682 171.66 479.875C171.238 480.062 170.71 480.156 170.074 480.156C169.225 480.156 168.559 479.938 168.074 479.5C167.595 479.062 167.356 478.44 167.356 477.633C167.356 475.904 168.738 474.997 171.504 474.914L172.957 474.867V474.336C172.957 473.664 172.811 473.169 172.52 472.852C172.233 472.529 171.772 472.367 171.137 472.367C170.423 472.367 169.616 472.586 168.715 473.023L168.317 472.031C168.738 471.802 169.199 471.622 169.699 471.492C170.205 471.362 170.71 471.297 171.215 471.297C172.236 471.297 172.991 471.523 173.481 471.977C173.975 472.43 174.223 473.156 174.223 474.156V480H173.262ZM170.332 479.086C171.139 479.086 171.772 478.865 172.231 478.422C172.694 477.979 172.926 477.359 172.926 476.562V475.789L171.629 475.844C170.598 475.88 169.853 476.042 169.395 476.328C168.942 476.609 168.715 477.049 168.715 477.648C168.715 478.117 168.856 478.474 169.137 478.719C169.423 478.964 169.822 479.086 170.332 479.086ZM182.522 480V474.461C182.522 473.763 182.363 473.242 182.045 472.898C181.728 472.555 181.23 472.383 180.553 472.383C179.657 472.383 179.001 472.625 178.584 473.109C178.168 473.594 177.959 474.393 177.959 475.508V480H176.662V471.438H177.717L177.928 472.609H177.991C178.256 472.188 178.629 471.862 179.108 471.633C179.587 471.398 180.121 471.281 180.709 471.281C181.741 471.281 182.517 471.531 183.037 472.031C183.558 472.526 183.819 473.32 183.819 474.414V480H182.522ZM192.932 479.086C193.162 479.086 193.383 479.07 193.597 479.039C193.81 479.003 193.979 478.966 194.104 478.93V479.922C193.964 479.99 193.755 480.044 193.479 480.086C193.209 480.133 192.964 480.156 192.745 480.156C191.089 480.156 190.261 479.284 190.261 477.539V472.445H189.034V471.82L190.261 471.281L190.807 469.453H191.557V471.438H194.042V472.445H191.557V477.484C191.557 478 191.68 478.396 191.925 478.672C192.169 478.948 192.505 479.086 192.932 479.086ZM200.849 480L200.591 478.781H200.528C200.101 479.318 199.674 479.682 199.247 479.875C198.825 480.062 198.297 480.156 197.661 480.156C196.812 480.156 196.146 479.938 195.661 479.5C195.182 479.062 194.942 478.44 194.942 477.633C194.942 475.904 196.325 474.997 199.091 474.914L200.544 474.867V474.336C200.544 473.664 200.398 473.169 200.107 472.852C199.82 472.529 199.359 472.367 198.724 472.367C198.01 472.367 197.203 472.586 196.302 473.023L195.903 472.031C196.325 471.802 196.786 471.622 197.286 471.492C197.791 471.362 198.297 471.297 198.802 471.297C199.823 471.297 200.578 471.523 201.067 471.977C201.562 472.43 201.81 473.156 201.81 474.156V480H200.849ZM197.919 479.086C198.726 479.086 199.359 478.865 199.817 478.422C200.281 477.979 200.513 477.359 200.513 476.562V475.789L199.216 475.844C198.185 475.88 197.44 476.042 196.982 476.328C196.528 476.609 196.302 477.049 196.302 477.648C196.302 478.117 196.442 478.474 196.724 478.719C197.01 478.964 197.409 479.086 197.919 479.086ZM215.163 480V474.43C215.163 473.747 215.018 473.237 214.726 472.898C214.434 472.555 213.981 472.383 213.367 472.383C212.559 472.383 211.963 472.615 211.577 473.078C211.192 473.542 210.999 474.255 210.999 475.219V480H209.702V474.43C209.702 473.747 209.557 473.237 209.265 472.898C208.973 472.555 208.518 472.383 207.898 472.383C207.085 472.383 206.489 472.628 206.109 473.117C205.734 473.602 205.546 474.398 205.546 475.508V480H204.249V471.438H205.304L205.515 472.609H205.577C205.822 472.193 206.166 471.867 206.609 471.633C207.057 471.398 207.557 471.281 208.109 471.281C209.447 471.281 210.322 471.766 210.734 472.734H210.796C211.051 472.286 211.421 471.932 211.906 471.672C212.39 471.411 212.942 471.281 213.562 471.281C214.531 471.281 215.255 471.531 215.734 472.031C216.218 472.526 216.46 473.32 216.46 474.414V480H215.163ZM222.884 471.297C224.009 471.297 224.882 471.682 225.502 472.453C226.127 473.219 226.439 474.305 226.439 475.711C226.439 477.117 226.124 478.211 225.494 478.992C224.869 479.768 223.999 480.156 222.884 480.156C222.327 480.156 221.817 480.055 221.353 479.852C220.895 479.643 220.509 479.326 220.197 478.898H220.103L219.83 480H218.9V467.844H220.197V470.797C220.197 471.458 220.176 472.052 220.134 472.578H220.197C220.801 471.724 221.697 471.297 222.884 471.297ZM222.697 472.383C221.811 472.383 221.173 472.638 220.783 473.148C220.392 473.654 220.197 474.508 220.197 475.711C220.197 476.914 220.397 477.776 220.798 478.297C221.199 478.812 221.843 479.07 222.728 479.07C223.525 479.07 224.119 478.781 224.509 478.203C224.9 477.62 225.095 476.784 225.095 475.695C225.095 474.581 224.9 473.75 224.509 473.203C224.119 472.656 223.515 472.383 222.697 472.383ZM233.738 480L233.48 478.781H233.418C232.991 479.318 232.564 479.682 232.137 479.875C231.715 480.062 231.186 480.156 230.551 480.156C229.702 480.156 229.035 479.938 228.551 479.5C228.071 479.062 227.832 478.44 227.832 477.633C227.832 475.904 229.215 474.997 231.98 474.914L233.433 474.867V474.336C233.433 473.664 233.288 473.169 232.996 472.852C232.709 472.529 232.249 472.367 231.613 472.367C230.9 472.367 230.092 472.586 229.191 473.023L228.793 472.031C229.215 471.802 229.676 471.622 230.176 471.492C230.681 471.362 231.186 471.297 231.691 471.297C232.712 471.297 233.467 471.523 233.957 471.977C234.452 472.43 234.699 473.156 234.699 474.156V480H233.738ZM230.808 479.086C231.616 479.086 232.249 478.865 232.707 478.422C233.17 477.979 233.402 477.359 233.402 476.562V475.789L232.105 475.844C231.074 475.88 230.329 476.042 229.871 476.328C229.418 476.609 229.191 477.049 229.191 477.648C229.191 478.117 229.332 478.474 229.613 478.719C229.9 478.964 230.298 479.086 230.808 479.086ZM242.998 480V474.461C242.998 473.763 242.839 473.242 242.522 472.898C242.204 472.555 241.706 472.383 241.029 472.383C240.128 472.383 239.469 472.628 239.053 473.117C238.641 473.607 238.436 474.409 238.436 475.523V480H237.139V467.844H238.436V471.523C238.436 471.966 238.415 472.333 238.373 472.625H238.451C238.706 472.214 239.068 471.891 239.537 471.656C240.011 471.417 240.55 471.297 241.154 471.297C242.201 471.297 242.985 471.547 243.506 472.047C244.032 472.542 244.295 473.331 244.295 474.414V480H242.998ZM258.018 480L256.596 476.367H252.018L250.612 480H249.268L253.784 468.531H254.901L259.393 480H258.018ZM256.182 475.172L254.854 471.633C254.682 471.185 254.505 470.635 254.323 469.984C254.208 470.484 254.044 471.034 253.831 471.633L252.487 475.172H256.182ZM266.052 477.664C266.052 478.461 265.755 479.076 265.161 479.508C264.567 479.94 263.734 480.156 262.661 480.156C261.526 480.156 260.64 479.977 260.005 479.617V478.414C260.416 478.622 260.856 478.786 261.325 478.906C261.799 479.026 262.255 479.086 262.692 479.086C263.369 479.086 263.89 478.979 264.255 478.766C264.619 478.547 264.802 478.216 264.802 477.773C264.802 477.44 264.656 477.156 264.364 476.922C264.078 476.682 263.515 476.401 262.677 476.078C261.88 475.781 261.312 475.523 260.973 475.305C260.64 475.081 260.39 474.828 260.223 474.547C260.062 474.266 259.981 473.93 259.981 473.539C259.981 472.841 260.265 472.292 260.833 471.891C261.401 471.484 262.179 471.281 263.169 471.281C264.091 471.281 264.992 471.469 265.872 471.844L265.411 472.898C264.552 472.544 263.773 472.367 263.075 472.367C262.46 472.367 261.997 472.464 261.684 472.656C261.372 472.849 261.216 473.115 261.216 473.453C261.216 473.682 261.273 473.878 261.387 474.039C261.507 474.201 261.697 474.354 261.958 474.5C262.218 474.646 262.718 474.857 263.458 475.133C264.473 475.503 265.158 475.875 265.512 476.25C265.872 476.625 266.052 477.096 266.052 477.664ZM271.546 480.156C270.28 480.156 269.28 479.771 268.546 479C267.817 478.229 267.452 477.159 267.452 475.789C267.452 474.409 267.791 473.312 268.468 472.5C269.15 471.688 270.064 471.281 271.21 471.281C272.283 471.281 273.132 471.635 273.757 472.344C274.382 473.047 274.694 473.977 274.694 475.133V475.953H268.796C268.822 476.958 269.075 477.721 269.554 478.242C270.038 478.763 270.718 479.023 271.593 479.023C272.515 479.023 273.426 478.831 274.327 478.445V479.602C273.869 479.799 273.434 479.94 273.022 480.023C272.616 480.112 272.124 480.156 271.546 480.156ZM271.194 472.367C270.507 472.367 269.957 472.591 269.546 473.039C269.14 473.487 268.9 474.107 268.827 474.898H273.304C273.304 474.081 273.121 473.456 272.757 473.023C272.392 472.586 271.871 472.367 271.194 472.367ZM279.439 479.086C279.668 479.086 279.889 479.07 280.103 479.039C280.316 479.003 280.486 478.966 280.611 478.93V479.922C280.47 479.99 280.262 480.044 279.986 480.086C279.715 480.133 279.47 480.156 279.251 480.156C277.595 480.156 276.767 479.284 276.767 477.539V472.445H275.54V471.82L276.767 471.281L277.314 469.453H278.064V471.438H280.548V472.445H278.064V477.484C278.064 478 278.186 478.396 278.431 478.672C278.676 478.948 279.012 479.086 279.439 479.086Z" fill="#757575"/>
<path fill-rule="evenodd" clip-rule="evenodd" d="M182.609 290.422C117.132 293.936 22.4199 273.955 3.75736 305.083C-14.9053 336.211 42.6262 330.302 31.0039 344.003C19.3818 357.704 163.278 376.172 274.05 373.798C384.822 371.423 440.522 304.385 380.82 299.443C321.117 294.5 182.609 290.422 182.609 290.422Z" fill="#F2F2F2"/>
<path fill-rule="evenodd" clip-rule="evenodd" d="M187.06 54.6083C123.333 122.411 24.9122 26.1814 4.77344 122.057C-15.3653 217.932 364.173 349.396 396.705 162.26C429.237 -24.8757 270.977 -34.6753 187.06 54.6083Z" fill="#F2F2F2"/>
<path fill-rule="evenodd" clip-rule="evenodd" d="M197.416 156.512L293.613 197.086V324.336L197.416 283.762V156.512Z" fill="#BCBEC0"/>
<path fill-rule="evenodd" clip-rule="evenodd" d="M359.41 170.603L293.476 196.906L197.416 156.462L264.203 129.027L359.41 170.603Z" fill="#959597"/>
<path fill-rule="evenodd" clip-rule="evenodd" d="M359.41 170.671V297.944L293.613 324.336V197.063L359.41 170.671Z" fill="#AFB1B5"/>
<path fill-rule="evenodd" clip-rule="evenodd" d="M203.663 169.838L283.619 205.5V255.208L203.663 220.89V169.838Z" fill="#AFB1B5"/>
<path fill-rule="evenodd" clip-rule="evenodd" d="M203.663 228.556L283.619 264.218V313.925L203.663 279.607V228.556Z" fill="#959597"/>
<path fill-rule="evenodd" clip-rule="evenodd" d="M234.479 202.737L252.802 210.832V218.145L234.479 210.355V202.737Z" fill="#959597"/>
<path fill-rule="evenodd" clip-rule="evenodd" d="M158.271 271.865L154.939 273.425L227.816 350.988L231.147 349.428V304.266L158.271 271.865Z" fill="#954512"/>
<path fill-rule="evenodd" clip-rule="evenodd" d="M154.939 273.531L227.816 305.888V350.988L154.939 319.851V273.531Z" fill="#F7841C"/>
<path fill-rule="evenodd" clip-rule="evenodd" d="M181.591 304.347L200.748 312.865V320.172L181.591 311.976V304.347Z" fill="#954512"/>
<path fill-rule="evenodd" clip-rule="evenodd" d="M283.618 276.862V300.46L230.731 339.744V313.634L283.618 276.862Z" fill="#F7841C"/>
<path fill-rule="evenodd" clip-rule="evenodd" d="M248.638 248.1L191.341 286.44L167.432 275.773L224.951 237.535L222.565 236.468L248.638 248.1Z" fill="#F7841C"/>
<path fill-rule="evenodd" clip-rule="evenodd" d="M248.651 248.128L284.035 263.915V273.315L230.959 310.594V304.203L191.169 286.495L248.651 248.128Z" fill="#5E290B"/>
<path fill-rule="evenodd" clip-rule="evenodd" d="M283.618 273.531V277.049L230.731 313.925V310.817L283.618 273.531Z" fill="#954512"/>
<path fill-rule="evenodd" clip-rule="evenodd" d="M224.901 237.947L167.27 276.029L164.934 274.992L222.51 236.884L224.901 237.947Z" fill="#954512"/>
<path fill-rule="evenodd" clip-rule="evenodd" d="M301.913 231.926C301.895 231.926 301.877 231.925 301.859 231.921C301.705 231.892 301.604 231.743 301.633 231.59C301.737 231.051 301.79 230.571 301.79 230.163C301.79 230 301.781 229.846 301.764 229.706C301.746 229.55 301.857 229.409 302.013 229.39C302.176 229.372 302.31 229.483 302.329 229.638C302.348 229.801 302.358 229.978 302.358 230.163C302.358 230.607 302.302 231.123 302.192 231.696C302.166 231.832 302.047 231.926 301.913 231.926ZM300.738 235.719C300.704 235.719 300.668 235.713 300.634 235.699C300.488 235.642 300.416 235.478 300.474 235.332C300.731 234.682 300.955 234.059 301.139 233.479C301.187 233.33 301.346 233.248 301.496 233.295C301.646 233.342 301.729 233.501 301.681 233.65C301.493 234.243 301.264 234.878 301.003 235.54C300.959 235.651 300.852 235.719 300.738 235.719ZM299.104 239.344C299.062 239.344 299.019 239.335 298.978 239.315C298.837 239.245 298.78 239.075 298.85 238.935C299.153 238.329 299.439 237.728 299.701 237.149C299.765 237.007 299.933 236.943 300.077 237.007C300.22 237.072 300.283 237.24 300.219 237.382C299.954 237.968 299.665 238.575 299.359 239.187C299.309 239.287 299.209 239.344 299.104 239.344ZM297.219 242.846C297.171 242.846 297.122 242.833 297.078 242.808C296.942 242.73 296.894 242.557 296.973 242.421C297.308 241.839 297.632 241.257 297.937 240.692C298.012 240.553 298.183 240.502 298.322 240.576C298.46 240.65 298.512 240.822 298.438 240.96C298.13 241.53 297.803 242.117 297.466 242.703C297.413 242.795 297.317 242.846 297.219 242.846ZM250.126 244.048C249.976 244.048 249.851 243.932 249.842 243.781C249.833 243.625 249.953 243.491 250.11 243.482C250.705 243.448 251.319 243.431 251.934 243.431L252.116 243.432C252.273 243.433 252.4 243.56 252.399 243.716C252.398 243.873 252.271 243.999 252.115 243.999H252.114L251.934 243.998C251.329 243.998 250.727 244.015 250.142 244.048C250.136 244.048 250.131 244.048 250.126 244.048ZM256.086 244.242C256.075 244.242 256.064 244.242 256.053 244.24C255.395 244.165 254.733 244.106 254.086 244.066C253.929 244.056 253.81 243.922 253.82 243.765C253.83 243.61 253.966 243.49 254.121 243.5C254.778 243.541 255.45 243.601 256.118 243.678C256.274 243.695 256.386 243.836 256.368 243.992C256.351 244.136 256.228 244.242 256.086 244.242ZM246.181 244.55C246.05 244.55 245.931 244.458 245.903 244.324C245.872 244.171 245.97 244.021 246.124 243.989C246.762 243.857 247.43 243.747 248.109 243.662C248.271 243.642 248.407 243.753 248.426 243.908C248.446 244.063 248.336 244.205 248.18 244.225C247.515 244.308 246.863 244.415 246.24 244.544C246.22 244.548 246.201 244.55 246.181 244.55ZM260.01 244.897C259.99 244.897 259.97 244.895 259.949 244.89C259.307 244.75 258.655 244.625 258.009 244.517C257.854 244.491 257.75 244.345 257.776 244.191C257.802 244.036 257.947 243.932 258.103 243.958C258.758 244.067 259.42 244.195 260.071 244.336C260.224 244.37 260.321 244.521 260.288 244.674C260.259 244.806 260.141 244.897 260.01 244.897ZM242.39 245.727C242.28 245.727 242.176 245.663 242.129 245.557C242.066 245.413 242.132 245.246 242.275 245.183C242.869 244.924 243.506 244.69 244.171 244.486C244.321 244.44 244.481 244.524 244.527 244.674C244.573 244.823 244.488 244.982 244.338 245.028C243.694 245.225 243.077 245.452 242.503 245.703C242.466 245.719 242.428 245.727 242.39 245.727ZM263.851 245.93C263.823 245.93 263.793 245.926 263.764 245.916C263.14 245.716 262.502 245.528 261.869 245.358C261.717 245.317 261.628 245.161 261.669 245.01C261.709 244.859 261.865 244.769 262.017 244.811C262.659 244.983 263.305 245.174 263.938 245.377C264.088 245.425 264.17 245.585 264.122 245.734C264.083 245.854 263.972 245.93 263.851 245.93ZM295.149 246.241C295.096 246.241 295.043 246.226 294.996 246.196C294.863 246.111 294.825 245.936 294.91 245.804C295.269 245.246 295.623 244.681 295.962 244.125C296.044 243.992 296.218 243.949 296.353 244.031C296.487 244.112 296.53 244.286 296.448 244.42C296.106 244.98 295.75 245.548 295.388 246.11C295.334 246.195 295.242 246.241 295.149 246.241ZM267.574 247.328C267.536 247.328 267.498 247.32 267.461 247.304C266.861 247.045 266.245 246.796 265.63 246.565C265.483 246.51 265.409 246.347 265.464 246.2C265.519 246.054 265.683 245.98 265.83 246.035C266.454 246.269 267.079 246.521 267.687 246.784C267.831 246.847 267.897 247.013 267.835 247.157C267.789 247.264 267.684 247.328 267.574 247.328ZM239.047 247.842C238.971 247.842 238.895 247.812 238.839 247.752C238.732 247.637 238.739 247.457 238.854 247.351C239.332 246.91 239.878 246.497 240.478 246.123C240.612 246.04 240.787 246.08 240.87 246.213C240.953 246.346 240.913 246.52 240.78 246.603C240.209 246.959 239.692 247.35 239.24 247.767C239.186 247.818 239.116 247.842 239.047 247.842ZM271.142 249.088C271.095 249.088 271.047 249.077 271.003 249.052C270.433 248.734 269.845 248.424 269.255 248.134C269.114 248.064 269.056 247.894 269.126 247.754C269.196 247.614 269.365 247.556 269.507 247.626C270.105 247.921 270.703 248.234 271.281 248.558C271.418 248.634 271.467 248.807 271.39 248.943C271.338 249.036 271.241 249.088 271.142 249.088ZM292.922 249.535C292.865 249.535 292.808 249.518 292.758 249.483C292.63 249.392 292.599 249.215 292.69 249.088C293.072 248.549 293.451 248.001 293.818 247.458C293.906 247.329 294.083 247.294 294.213 247.382C294.343 247.469 294.377 247.645 294.29 247.775C293.92 248.321 293.538 248.873 293.154 249.415C293.099 249.493 293.011 249.535 292.922 249.535ZM236.893 251.12C236.864 251.12 236.834 251.116 236.805 251.106C236.656 251.058 236.574 250.898 236.623 250.749C236.832 250.102 237.134 249.481 237.519 248.903C237.606 248.772 237.782 248.736 237.913 248.823C238.044 248.91 238.079 249.086 237.993 249.216C237.636 249.751 237.357 250.326 237.163 250.924C237.124 251.044 237.013 251.12 236.893 251.12ZM274.505 251.21C274.448 251.21 274.39 251.193 274.34 251.157C273.809 250.78 273.257 250.411 272.701 250.06C272.568 249.976 272.528 249.801 272.612 249.669C272.696 249.537 272.872 249.497 273.004 249.581C273.569 249.937 274.13 250.312 274.67 250.695C274.798 250.786 274.828 250.963 274.737 251.091C274.681 251.168 274.594 251.21 274.505 251.21ZM290.55 252.726C290.489 252.726 290.428 252.707 290.376 252.667C290.252 252.571 290.23 252.393 290.326 252.269C290.731 251.749 291.134 251.218 291.525 250.692C291.619 250.566 291.797 250.54 291.923 250.633C292.049 250.726 292.075 250.903 291.982 251.029C291.589 251.559 291.183 252.093 290.775 252.617C290.719 252.689 290.635 252.726 290.55 252.726ZM277.609 253.692C277.541 253.692 277.473 253.668 277.418 253.619C276.936 253.184 276.43 252.755 275.915 252.344C275.793 252.246 275.773 252.067 275.871 251.945C275.97 251.824 276.148 251.803 276.271 251.901C276.794 252.32 277.309 252.756 277.799 253.198C277.916 253.303 277.925 253.482 277.82 253.598C277.764 253.66 277.686 253.692 277.609 253.692ZM236.679 255.037C236.543 255.037 236.423 254.941 236.399 254.803C236.301 254.244 236.251 253.693 236.251 253.163C236.251 253.03 236.254 252.898 236.26 252.767C236.267 252.61 236.402 252.493 236.557 252.497C236.713 252.504 236.835 252.636 236.828 252.793C236.822 252.915 236.819 253.038 236.819 253.163C236.819 253.66 236.866 254.179 236.959 254.705C236.986 254.859 236.883 255.006 236.728 255.033C236.711 255.036 236.695 255.037 236.679 255.037ZM288.038 255.809C287.973 255.809 287.907 255.787 287.854 255.741C287.735 255.64 287.72 255.461 287.822 255.342C288.246 254.845 288.673 254.333 289.091 253.82C289.191 253.698 289.369 253.68 289.491 253.779C289.613 253.877 289.631 254.056 289.533 254.177C289.111 254.694 288.681 255.209 288.255 255.709C288.198 255.775 288.118 255.809 288.038 255.809ZM280.392 256.526C280.313 256.526 280.233 256.493 280.177 256.428C279.751 255.935 279.301 255.449 278.842 254.981C278.732 254.869 278.734 254.69 278.846 254.58C278.958 254.471 279.138 254.472 279.248 254.584C279.716 255.06 280.173 255.556 280.608 256.058C280.71 256.176 280.697 256.355 280.578 256.457C280.525 256.503 280.458 256.526 280.392 256.526ZM237.985 258.768C237.881 258.768 237.782 258.712 237.732 258.613C237.414 257.988 237.143 257.365 236.927 256.762C236.874 256.615 236.951 256.453 237.099 256.4C237.246 256.347 237.409 256.424 237.462 256.571C237.67 257.152 237.931 257.753 238.238 258.357C238.31 258.496 238.254 258.667 238.114 258.738C238.072 258.758 238.029 258.768 237.985 258.768ZM285.38 258.773C285.31 258.773 285.24 258.748 285.185 258.696C285.071 258.589 285.065 258.41 285.173 258.296C285.623 257.818 286.076 257.326 286.517 256.833C286.622 256.716 286.802 256.706 286.919 256.811C287.036 256.915 287.046 257.094 286.941 257.211C286.496 257.707 286.041 258.203 285.587 258.684C285.531 258.743 285.456 258.773 285.38 258.773ZM282.791 259.687C282.698 259.687 282.607 259.642 282.553 259.559C282.194 259.014 281.811 258.475 281.416 257.955C281.322 257.83 281.346 257.653 281.471 257.558C281.597 257.463 281.775 257.488 281.869 257.613C282.272 258.143 282.661 258.693 283.028 259.248C283.114 259.378 283.078 259.554 282.947 259.64C282.898 259.672 282.844 259.687 282.791 259.687ZM282.576 261.594C282.501 261.594 282.426 261.564 282.37 261.506C282.262 261.393 282.266 261.213 282.38 261.105C282.852 260.656 283.328 260.19 283.794 259.721C283.904 259.609 284.084 259.609 284.196 259.719C284.307 259.829 284.308 260.009 284.198 260.12C283.728 260.593 283.248 261.062 282.772 261.515C282.717 261.568 282.646 261.594 282.576 261.594ZM240.104 262.12C240.017 262.12 239.932 262.08 239.876 262.006C239.461 261.451 239.076 260.896 238.733 260.357C238.648 260.225 238.688 260.05 238.82 259.966C238.953 259.883 239.128 259.921 239.212 260.054C239.548 260.58 239.925 261.123 240.332 261.667C240.425 261.792 240.4 261.97 240.273 262.064C240.223 262.101 240.163 262.12 240.104 262.12ZM284.73 263.145C284.622 263.145 284.518 263.082 284.471 262.977C284.218 262.415 283.918 261.828 283.58 261.234C283.503 261.098 283.551 260.925 283.687 260.848C283.824 260.771 283.997 260.819 284.075 260.955C284.421 261.564 284.729 262.167 284.989 262.745C285.054 262.888 284.99 263.056 284.846 263.12C284.809 263.137 284.769 263.145 284.73 263.145ZM279.618 264.244C279.537 264.244 279.457 264.21 279.4 264.143C279.299 264.024 279.314 263.845 279.434 263.744C279.932 263.326 280.435 262.889 280.929 262.446C281.046 262.341 281.225 262.351 281.33 262.467C281.436 262.584 281.426 262.763 281.309 262.868C280.81 263.315 280.303 263.756 279.801 264.177C279.747 264.222 279.682 264.244 279.618 264.244ZM242.665 265.153C242.588 265.153 242.513 265.123 242.457 265.063C241.988 264.562 241.54 264.06 241.125 263.571C241.024 263.451 241.039 263.272 241.159 263.171C241.279 263.07 241.459 263.086 241.559 263.205C241.968 263.687 242.41 264.182 242.872 264.676C242.979 264.791 242.973 264.97 242.858 265.077C242.804 265.128 242.734 265.153 242.665 265.153ZM276.485 266.693C276.397 266.693 276.31 266.653 276.254 266.576C276.162 266.45 276.19 266.272 276.318 266.18C276.84 265.803 277.371 265.402 277.898 264.99C278.021 264.894 278.199 264.916 278.297 265.038C278.394 265.162 278.372 265.34 278.249 265.436C277.717 265.852 277.179 266.257 276.651 266.639C276.601 266.676 276.542 266.693 276.485 266.693ZM285.832 266.939C285.688 266.939 285.565 266.831 285.55 266.685C285.486 266.085 285.355 265.45 285.159 264.797C285.114 264.647 285.199 264.49 285.349 264.445C285.5 264.399 285.658 264.485 285.703 264.635C285.909 265.321 286.048 265.991 286.115 266.626C286.132 266.782 286.018 266.921 285.862 266.938C285.852 266.938 285.842 266.939 285.832 266.939ZM245.521 267.91C245.456 267.91 245.39 267.888 245.337 267.842C244.84 267.42 244.342 266.966 243.855 266.492C243.742 266.383 243.74 266.203 243.85 266.091C243.96 265.979 244.14 265.977 244.252 266.086C244.73 266.551 245.219 266.997 245.706 267.411C245.825 267.513 245.839 267.692 245.737 267.811C245.681 267.876 245.601 267.91 245.521 267.91ZM273.167 268.886C273.07 268.886 272.976 268.837 272.923 268.748C272.842 268.614 272.886 268.44 273.02 268.36C273.574 268.028 274.137 267.674 274.692 267.306C274.823 267.219 274.999 267.255 275.086 267.386C275.173 267.516 275.137 267.692 275.006 267.778C274.444 268.151 273.874 268.51 273.313 268.846C273.267 268.873 273.217 268.886 273.167 268.886ZM248.731 270.247C248.681 270.247 248.629 270.233 248.583 270.205C248.023 269.863 247.461 269.486 246.913 269.086C246.786 268.994 246.759 268.817 246.851 268.691C246.944 268.564 247.122 268.537 247.248 268.629C247.784 269.02 248.333 269.388 248.88 269.721C249.014 269.803 249.056 269.978 248.974 270.111C248.92 270.198 248.827 270.247 248.731 270.247ZM269.655 270.748C269.547 270.748 269.445 270.687 269.397 270.584C269.331 270.441 269.393 270.273 269.535 270.207C270.12 269.938 270.714 269.643 271.301 269.331C271.441 269.256 271.612 269.309 271.686 269.447C271.76 269.585 271.708 269.757 271.569 269.831C270.972 270.148 270.368 270.448 269.774 270.722C269.735 270.74 269.695 270.748 269.655 270.748ZM285.224 270.767C285.183 270.767 285.141 270.758 285.101 270.739C284.96 270.671 284.9 270.502 284.968 270.361C285.237 269.805 285.421 269.209 285.517 268.588C285.54 268.433 285.687 268.327 285.841 268.351C285.996 268.375 286.103 268.519 286.079 268.674C285.975 269.35 285.773 270.001 285.48 270.607C285.431 270.708 285.33 270.767 285.224 270.767ZM252.295 271.997C252.261 271.997 252.227 271.991 252.194 271.979C251.573 271.744 250.951 271.474 250.346 271.176C250.205 271.106 250.147 270.937 250.217 270.796C250.287 270.656 250.457 270.599 250.598 270.668C251.187 270.958 251.792 271.221 252.395 271.449C252.542 271.504 252.616 271.668 252.56 271.814C252.517 271.927 252.409 271.997 252.295 271.997ZM265.947 272.178C265.826 272.178 265.713 272.1 265.676 271.978C265.629 271.829 265.713 271.67 265.863 271.624C266.477 271.434 267.102 271.216 267.721 270.977C267.868 270.92 268.032 270.992 268.089 271.138C268.146 271.284 268.073 271.448 267.927 271.505C267.295 271.75 266.657 271.972 266.031 272.165C266.003 272.174 265.975 272.178 265.947 272.178ZM256.133 273.014C256.118 273.014 256.103 273.013 256.088 273.011C255.427 272.907 254.763 272.767 254.114 272.595C253.962 272.554 253.872 272.399 253.912 272.248C253.953 272.097 254.111 272.008 254.26 272.047C254.89 272.214 255.535 272.35 256.177 272.451C256.332 272.475 256.438 272.62 256.413 272.775C256.391 272.915 256.27 273.014 256.133 273.014ZM262.074 273.048C261.934 273.048 261.812 272.945 261.793 272.803C261.771 272.648 261.88 272.505 262.035 272.484C262.671 272.396 263.321 272.277 263.965 272.132C264.121 272.097 264.271 272.193 264.305 272.345C264.34 272.498 264.244 272.65 264.091 272.684C263.431 272.834 262.765 272.955 262.113 273.045C262.1 273.047 262.087 273.048 262.074 273.048ZM259.178 273.25C258.817 273.25 258.452 273.241 258.094 273.221C257.938 273.213 257.818 273.079 257.826 272.923C257.834 272.767 257.972 272.648 258.125 272.655C258.771 272.69 259.433 272.692 260.085 272.663C260.231 272.657 260.374 272.777 260.381 272.933C260.389 273.09 260.267 273.222 260.11 273.229C259.801 273.243 259.488 273.25 259.178 273.25ZM282.676 273.7C282.589 273.7 282.503 273.661 282.447 273.585C282.354 273.46 282.38 273.282 282.507 273.189C283.048 272.79 283.525 272.36 283.923 271.912C284.027 271.795 284.207 271.784 284.324 271.888C284.441 271.992 284.452 272.171 284.348 272.288C283.924 272.765 283.418 273.222 282.845 273.645C282.794 273.682 282.735 273.7 282.676 273.7ZM279.195 275.581C279.082 275.581 278.976 275.515 278.931 275.404C278.872 275.26 278.942 275.094 279.088 275.035C279.724 274.777 280.322 274.501 280.863 274.214C281.002 274.14 281.173 274.192 281.247 274.33C281.321 274.469 281.269 274.64 281.13 274.714C280.572 275.01 279.956 275.295 279.301 275.56C279.266 275.575 279.23 275.581 279.195 275.581ZM275.408 276.804C275.282 276.804 275.167 276.719 275.134 276.592C275.094 276.44 275.185 276.285 275.337 276.246C276.002 276.074 276.641 275.891 277.236 275.701C277.385 275.653 277.546 275.735 277.593 275.884C277.641 276.033 277.559 276.193 277.41 276.24C276.804 276.434 276.155 276.62 275.48 276.795C275.456 276.801 275.432 276.804 275.408 276.804ZM271.512 277.637C271.376 277.637 271.257 277.54 271.232 277.403C271.205 277.249 271.308 277.102 271.463 277.074C272.137 276.955 272.792 276.829 273.41 276.697C273.562 276.664 273.714 276.762 273.747 276.915C273.779 277.069 273.681 277.219 273.528 277.252C272.904 277.384 272.242 277.512 271.562 277.632C271.545 277.635 271.528 277.637 271.512 277.637ZM267.569 278.225C267.428 278.225 267.305 278.12 267.287 277.977C267.267 277.821 267.378 277.68 267.534 277.66C268.212 277.575 268.874 277.485 269.502 277.391C269.658 277.369 269.802 277.475 269.825 277.63C269.848 277.785 269.741 277.929 269.586 277.952C268.954 278.046 268.287 278.137 267.605 278.222C267.592 278.224 267.58 278.225 267.569 278.225ZM263.605 278.651C263.46 278.651 263.336 278.541 263.322 278.394C263.308 278.238 263.423 278.1 263.579 278.086C264.244 278.024 264.904 277.959 265.559 277.889C265.72 277.872 265.855 277.985 265.872 278.141C265.888 278.296 265.776 278.436 265.619 278.453C264.962 278.523 264.299 278.588 263.631 278.65C263.622 278.651 263.614 278.651 263.605 278.651ZM259.63 278.972C259.482 278.972 259.358 278.858 259.347 278.708C259.336 278.552 259.454 278.417 259.61 278.406C260.274 278.359 260.936 278.309 261.596 278.256C261.756 278.242 261.889 278.36 261.902 278.516C261.914 278.672 261.798 278.808 261.641 278.821C260.98 278.874 260.316 278.924 259.651 278.971C259.644 278.971 259.637 278.972 259.63 278.972ZM255.652 279.227C255.502 279.227 255.377 279.111 255.368 278.96C255.359 278.804 255.478 278.67 255.635 278.661C256.296 278.622 256.959 278.581 257.623 278.539C257.778 278.527 257.915 278.647 257.925 278.804C257.935 278.96 257.816 279.095 257.659 279.105C256.995 279.147 256.331 279.187 255.669 279.226C255.663 279.227 255.657 279.227 255.652 279.227ZM251.67 279.45C251.52 279.45 251.395 279.334 251.387 279.183C251.378 279.026 251.498 278.893 251.654 278.884L253.645 278.774C253.796 278.767 253.936 278.885 253.945 279.041C253.954 279.197 253.834 279.331 253.677 279.34L251.686 279.45C251.681 279.45 251.675 279.45 251.67 279.45ZM247.688 279.678C247.539 279.678 247.414 279.563 247.405 279.412C247.395 279.256 247.514 279.122 247.671 279.112C248.326 279.072 248.991 279.033 249.663 278.995C249.815 278.989 249.954 279.105 249.963 279.262C249.972 279.418 249.852 279.552 249.695 279.561C249.024 279.599 248.36 279.638 247.706 279.678C247.7 279.678 247.694 279.678 247.688 279.678ZM243.709 279.955C243.562 279.955 243.438 279.842 243.426 279.694C243.413 279.538 243.53 279.402 243.686 279.389C244.336 279.337 245.001 279.288 245.678 279.241C245.83 279.232 245.971 279.348 245.982 279.504C245.992 279.66 245.874 279.796 245.717 279.807C245.042 279.853 244.38 279.902 243.732 279.954C243.724 279.954 243.716 279.955 243.709 279.955ZM239.738 280.347C239.596 280.347 239.474 280.241 239.456 280.098C239.437 279.942 239.548 279.801 239.703 279.782C240.322 279.706 240.992 279.633 241.694 279.565C241.855 279.549 241.989 279.663 242.004 279.819C242.02 279.975 241.905 280.113 241.749 280.129C241.052 280.197 240.387 280.269 239.773 280.344C239.761 280.346 239.749 280.347 239.738 280.347ZM235.802 280.994C235.671 280.994 235.554 280.904 235.524 280.772C235.49 280.62 235.587 280.468 235.74 280.434C236.338 280.301 237.003 280.176 237.717 280.061C237.87 280.035 238.017 280.141 238.042 280.295C238.067 280.45 237.962 280.595 237.807 280.62C237.104 280.733 236.45 280.857 235.864 280.987C235.843 280.992 235.822 280.994 235.802 280.994ZM232.074 282.33C231.979 282.33 231.886 282.283 231.832 282.196C231.749 282.063 231.79 281.889 231.923 281.806C232.42 281.498 233.047 281.216 233.789 280.967C233.937 280.916 234.098 280.996 234.149 281.144C234.199 281.293 234.119 281.453 233.97 281.503C233.271 281.739 232.683 282.003 232.224 282.287C232.177 282.316 232.125 282.33 232.074 282.33ZM230.814 285.607C230.7 285.607 230.592 285.538 230.548 285.425C230.393 285.019 230.315 284.628 230.315 284.262C230.315 283.934 230.378 283.618 230.502 283.322C230.563 283.178 230.73 283.11 230.874 283.171C231.019 283.231 231.087 283.397 231.026 283.542C230.931 283.767 230.883 284.01 230.883 284.262C230.883 284.559 230.949 284.882 231.08 285.223C231.135 285.369 231.062 285.533 230.915 285.589C230.882 285.601 230.848 285.607 230.814 285.607Z" fill="#636363"/>
<path fill-rule="evenodd" clip-rule="evenodd" d="M302.12 222.874C302.082 222.725 302.04 222.592 301.996 222.477C301.721 221.779 301.433 222.134 301.345 223.073C299.824 221.796 297.781 220.667 297.552 222.461C297.336 224.163 300.259 224.598 301.352 224.443C301.367 224.637 301.389 224.84 301.418 225.051C300.145 224.84 294.963 226.279 295.782 229.019C296.628 231.848 299.764 229.119 301.748 226.648C301.876 227.11 302.035 227.585 302.232 228.064C302.362 228.38 302.445 227.897 302.468 227.087C303.88 228.509 306.802 230.36 308.17 228.548C310.017 226.102 305.577 225.09 302.411 224.935C302.396 224.73 302.378 224.527 302.357 224.328C304.364 223.862 306.985 222.738 305.565 221.394C304.523 220.409 302.904 221.812 302.12 222.874Z" fill="#636363"/>
<path fill-rule="evenodd" clip-rule="evenodd" d="M80.3972 316.84L69.4548 315.357L68.0158 315.162L66.2012 315.15C66.2012 315.15 66.2345 315.3 63.6722 314.034C61.108 312.768 63.5152 308.438 63.5152 308.438L68.9401 308.655L73.8491 308.412L80.2646 308.095C79.9857 311.104 80.0549 314.162 80.3972 316.84Z" fill="#F9AE93"/>
<path fill-rule="evenodd" clip-rule="evenodd" d="M63.6349 314.057C66.1172 315.312 66.0851 315.163 66.0851 315.163L67.8422 315.174C67.5556 313.856 67.0623 310.557 68.7369 308.727L66.4189 308.631L63.4829 308.511C63.4829 308.511 61.1516 312.802 63.6349 314.057Z" fill="white"/>
<path fill-rule="evenodd" clip-rule="evenodd" d="M63.6481 314.057C66.1591 315.312 66.1266 315.163 66.1266 315.163L67.904 315.174C67.904 315.174 66.6064 314.968 65.3521 313.557C64.1126 312.16 65.0109 309.331 66.4643 308.631L63.4944 308.511C63.4944 308.511 61.1361 312.802 63.6481 314.057Z" fill="#DBEAFC"/>
<path fill-rule="evenodd" clip-rule="evenodd" d="M59.4334 318.065C60.0912 318.628 60.0789 320.221 59.7399 322.22C59.6595 322.691 59.6653 323.207 59.7219 323.72C59.8113 324.558 60.0348 325.387 60.2329 326.002C62.8597 325.374 64.1197 318.874 64.4123 318.061C64.7429 317.148 67.0257 316.767 66.8375 316.134C66.6503 315.502 63.4651 314.067 63.5094 311.537C63.5208 310.894 63.6112 310.412 63.7569 310.047C63.9695 309.517 64.2986 309.234 64.6782 309.063C64.6792 309.062 64.6801 309.062 64.6812 309.061C65.0707 308.886 65.5115 308.826 65.9296 308.741C67.0408 308.511 67.8421 307.494 65.8632 307.323C65.8632 307.323 60.9449 306.815 60.3181 306.163C60.2765 306.12 60.2259 306.07 60.1645 306.013C59.2408 307.157 60.0674 309.164 60.0604 310.079C60.053 311.129 58.9287 310.597 59.2692 311.893C59.6099 313.191 60.016 313.552 59.7426 315.556C59.4693 317.56 58.7765 317.5 59.4334 318.065Z" fill="#002760"/>
<path fill-rule="evenodd" clip-rule="evenodd" d="M56.8636 308.557C57.4883 310.755 58.2776 313.039 58.1065 315.424C57.9564 317.522 57.9687 322.473 58.5399 324.475C58.6177 324.749 58.7057 324.968 58.806 325.117C59.0352 325.457 59.238 325.717 59.4125 325.916C59.7631 326.02 60.0948 326.026 60.4082 325.953C60.2052 325.335 59.9762 324.503 59.8844 323.662C59.8266 323.148 59.8206 322.63 59.903 322.156C60.2504 320.15 60.263 318.552 59.589 317.986C58.9158 317.419 59.6257 317.479 59.9058 315.468C60.186 313.456 59.7698 313.093 59.4207 311.791C59.0717 310.489 60.2239 311.023 60.2313 309.97C60.2385 309.051 59.3916 307.037 60.3381 305.888C59.9189 305.503 59.0761 304.836 58.2147 304.347C56.885 304.944 56.3247 306.663 56.8636 308.557Z" fill="white"/>
<path fill-rule="evenodd" clip-rule="evenodd" d="M55.4338 312.891C56.9786 314.977 57.0681 316.91 56.8675 318.657C56.7134 320.001 56.1151 322.961 57.3873 324.757C57.7691 325.297 58.3196 325.731 59.1014 325.985C59.1194 325.991 59.1396 325.997 59.1588 326.002C58.9857 325.804 58.7848 325.545 58.5576 325.206C58.4582 325.058 58.371 324.84 58.294 324.567C57.7279 322.575 57.7157 317.647 57.8644 315.559C58.034 313.185 57.2517 310.911 56.6325 308.724C56.0985 306.838 56.6537 305.127 57.9715 304.534C57.0252 303.996 56.0582 303.673 55.6235 304.196C54.7391 305.26 53.8879 310.806 55.4338 312.891Z" fill="#001F44"/>
<path fill-rule="evenodd" clip-rule="evenodd" d="M59.9917 323.738C60.0806 324.569 60.3025 325.391 60.4994 326.002C63.1088 325.379 64.3603 318.932 64.6511 318.126C64.9795 317.22 67.2471 316.842 67.0602 316.214C66.8742 315.588 63.7102 314.165 63.7542 311.655C63.7654 311.017 63.8552 310.539 64 310.177C63.2064 311.463 63.0386 313.374 63.6749 314.552C64.2268 315.574 62.7015 321.379 59.9917 323.738Z" fill="#001F44"/>
<path fill-rule="evenodd" clip-rule="evenodd" d="M63.178 322.67C63.2748 322.671 63.3801 322.658 63.4942 322.631C63.6135 322.602 63.9768 322.516 64.0766 322.221C64.1794 321.916 63.9446 321.64 63.7175 321.372C63.6218 321.26 63.5228 321.143 63.4663 321.044C63.3338 320.81 63.2847 320.423 63.4227 320.219C63.5145 320.083 63.699 320.028 63.9708 320.056C64.2024 320.08 64.4855 320.08 64.6221 319.87C64.7723 319.638 64.6177 319.388 64.4538 319.124C64.3242 318.914 64.1467 318.627 64.2317 318.498C64.3729 318.282 64.7804 318.057 65.0237 317.922C65.2752 317.783 65.4739 317.673 65.383 317.438C65.287 317.19 65.0708 317.233 64.4933 317.35C64.3459 317.379 64.2514 317.52 64.2821 317.664C64.2867 317.686 64.2939 317.706 64.3031 317.725C64.0955 317.862 63.8939 318.024 63.7725 318.209C63.5046 318.618 63.7838 319.069 63.9877 319.398C64.0118 319.437 64.0414 319.485 64.0677 319.53C64.0548 319.529 64.0412 319.528 64.0263 319.527C63.416 319.464 63.1139 319.708 62.9677 319.924C62.6968 320.325 62.7737 320.92 62.9898 321.301C63.0711 321.444 63.1866 321.58 63.2984 321.712C63.3817 321.81 63.5153 321.967 63.5482 322.049C63.5225 322.064 63.4687 322.088 63.3645 322.113C63.1918 322.154 63.0996 322.137 63.0734 322.111C63.025 322.063 63.0252 321.893 63.0577 321.773C63.0962 321.631 63.0103 321.485 62.8655 321.447C62.7209 321.408 62.5717 321.49 62.5319 321.631C62.5162 321.687 62.3871 322.184 62.6822 322.481C62.8061 322.606 62.9721 322.669 63.178 322.67Z" fill="white"/>
<path fill-rule="evenodd" clip-rule="evenodd" d="M80.3972 316.84L69.5698 315.357C70.4911 313.915 71.4153 310.569 73.9179 308.412L80.266 308.095C79.9901 311.104 80.0586 314.162 80.3972 316.84Z" fill="#F6816B"/>
<path fill-rule="evenodd" clip-rule="evenodd" d="M76.2328 308.652C77.3353 314.322 77.1463 317.715 77.477 317.998C77.8079 318.281 101.321 319.495 101.605 316.72C101.889 313.945 100.329 305.18 91.0417 305.18C81.7544 305.18 76.2328 308.652 76.2328 308.652Z" fill="#001F44"/>
<path fill-rule="evenodd" clip-rule="evenodd" d="M71.2355 325.586L60.7266 324.173L57.9656 323.802L56.1698 323.792C56.1698 323.792 56.2027 323.939 53.6656 322.696C51.1276 321.454 53.5102 317.204 53.5102 317.204L58.8795 317.417L69.3384 316.904L70.5311 316.846L70.643 316.84C70.6401 316.859 70.6383 316.877 70.6363 316.895C70.2377 319.918 70.6373 323.012 71.2355 325.586Z" fill="#F9AE93"/>
<path fill-rule="evenodd" clip-rule="evenodd" d="M53.6404 322.802C56.1227 324.057 56.0906 323.908 56.0906 323.908L57.8477 323.92C57.5611 322.601 57.0678 319.302 58.7424 317.472L56.4244 317.377L53.4884 317.257C53.4884 317.257 51.157 321.547 53.6404 322.802Z" fill="white"/>
<path fill-rule="evenodd" clip-rule="evenodd" d="M53.6536 322.802C56.1646 324.057 56.1321 323.908 56.1321 323.908L57.9095 323.92C57.9095 323.92 56.6119 323.713 55.3577 322.302C54.1181 320.905 55.0165 318.076 56.4698 317.377L53.4999 317.257C53.4999 317.257 51.1416 321.547 53.6536 322.802Z" fill="#DBEAFC"/>
<path fill-rule="evenodd" clip-rule="evenodd" d="M49.8554 326.81C50.5132 327.373 50.5008 328.966 50.1619 330.965C50.0815 331.437 50.0873 331.952 50.1438 332.465C50.2332 333.303 50.4568 334.132 50.6549 334.747C53.2817 334.12 54.5417 327.62 54.8342 326.807C55.1648 325.893 57.4478 325.512 57.2595 324.879C57.0723 324.248 53.8871 322.813 53.9314 320.282C53.9428 319.639 54.0332 319.157 54.1789 318.792C54.3915 318.262 54.7206 317.979 55.1002 317.808C55.1012 317.807 55.1021 317.807 55.1032 317.806C55.4927 317.631 55.9335 317.571 56.3515 317.486C57.4628 317.256 58.2641 316.239 56.2852 316.068C56.2852 316.068 51.3669 315.56 50.74 314.908C50.6984 314.865 50.6479 314.815 50.5865 314.758C49.6628 315.902 50.4893 317.909 50.4824 318.824C50.475 319.874 49.3506 319.342 49.6912 320.638C50.0318 321.936 50.438 322.297 50.1646 324.302C49.8913 326.305 49.1985 326.245 49.8554 326.81Z" fill="#002760"/>
<path fill-rule="evenodd" clip-rule="evenodd" d="M46.8691 317.302C47.4938 319.5 48.2831 321.784 48.112 324.169C47.9618 326.267 47.9741 331.218 48.5454 333.22C48.6231 333.494 48.7111 333.713 48.8115 333.862C49.0407 334.202 49.2435 334.462 49.4179 334.661C49.7686 334.765 50.1003 334.772 50.4137 334.698C50.2107 334.081 49.9816 333.248 49.8898 332.407C49.8321 331.893 49.8261 331.375 49.9085 330.902C50.2558 328.895 50.2685 327.297 49.5944 326.731C48.9213 326.164 49.6312 326.224 49.9113 324.213C50.1915 322.201 49.7752 321.839 49.4262 320.536C49.0771 319.235 50.2294 319.768 50.2368 318.715C50.244 317.796 49.3971 315.782 50.3436 314.633C49.9244 314.248 49.0816 313.581 48.2202 313.093C46.8904 313.689 46.3301 315.408 46.8691 317.302Z" fill="white"/>
<path fill-rule="evenodd" clip-rule="evenodd" d="M45.8558 321.636C47.4007 323.722 47.49 325.656 47.2896 327.402C47.1355 328.746 46.5371 331.706 47.8094 333.502C48.1912 334.042 48.7417 334.476 49.5234 334.73C49.5415 334.736 49.5617 334.742 49.5808 334.747C49.4078 334.549 49.2068 334.29 48.9797 333.951C48.8802 333.804 48.7931 333.586 48.7161 333.312C48.1499 331.32 48.1376 326.392 48.2865 324.304C48.4561 321.93 47.6737 319.656 47.0546 317.469C46.5205 315.583 47.0757 313.872 48.3936 313.279C47.4472 312.741 46.4802 312.418 46.0455 312.941C45.1611 314.005 44.3099 319.551 45.8558 321.636Z" fill="#001F44"/>
<path fill-rule="evenodd" clip-rule="evenodd" d="M49.9972 332.483C50.0861 333.314 50.3081 334.136 50.505 334.747C53.1144 334.124 54.3659 327.677 54.6566 326.871C54.985 325.965 57.2527 325.587 57.0657 324.959C56.8798 324.333 53.7158 322.91 53.7597 320.4C53.771 319.762 53.8608 319.284 54.0055 318.922C53.2119 320.208 53.0441 322.119 53.6805 323.297C54.2323 324.319 52.707 330.124 49.9972 332.483Z" fill="#001F44"/>
<path fill-rule="evenodd" clip-rule="evenodd" d="M53.5999 331.415C53.6966 331.416 53.802 331.403 53.916 331.376C54.0354 331.348 54.3985 331.262 54.4984 330.966C54.6013 330.661 54.3664 330.385 54.1394 330.118C54.0437 330.005 53.9447 329.889 53.8881 329.789C53.7556 329.555 53.7066 329.168 53.8446 328.964C53.9364 328.828 54.1208 328.774 54.3927 328.801C54.6243 328.825 54.9074 328.826 55.0439 328.615C55.1942 328.383 55.0396 328.133 54.8757 327.869C54.7461 327.659 54.5685 327.372 54.6535 327.243C54.7948 327.027 55.2022 326.802 55.4456 326.667C55.6971 326.528 55.8958 326.418 55.8049 326.183C55.7089 325.935 55.4927 325.978 54.915 326.095C54.7678 326.125 54.6733 326.265 54.704 326.409C54.7086 326.431 54.7158 326.451 54.725 326.47C54.5173 326.607 54.3157 326.769 54.1943 326.954C53.9264 327.363 54.2057 327.814 54.4096 328.143C54.4336 328.182 54.4633 328.23 54.4896 328.275C54.4767 328.275 54.4631 328.273 54.4482 328.272C53.8379 328.209 53.5358 328.453 53.3896 328.669C53.1186 329.07 53.1956 329.665 53.4116 330.046C53.493 330.19 53.6085 330.326 53.7202 330.457C53.8036 330.555 53.9371 330.712 53.9701 330.794C53.9444 330.809 53.8904 330.833 53.7863 330.858C53.6136 330.899 53.5215 330.883 53.4953 330.856C53.4469 330.808 53.4471 330.638 53.4796 330.518C53.518 330.376 53.4322 330.23 53.2874 330.192C53.1428 330.153 52.9936 330.235 52.9538 330.376C52.9381 330.432 52.809 330.929 53.1041 331.226C53.2279 331.351 53.394 331.414 53.5999 331.415Z" fill="white"/>
<path fill-rule="evenodd" clip-rule="evenodd" d="M128.302 327.482C115.656 330.603 93.9448 329.254 76.1806 327.266C76.3203 324.919 75.8511 318.093 75.3418 315.788C86.1229 315.587 95.9595 315.411 95.9595 315.411C84.2468 314.678 76.0935 310.489 71.4127 304.667C66.428 298.467 65.3819 290.415 68.1709 282.714C68.1709 282.714 68.1905 282.709 68.2336 282.701C81.2211 279.924 96.0925 288.039 96.2911 288.148C96.2919 288.149 96.2929 288.149 96.2929 288.149C96.3653 286.711 98.3048 284.469 100.199 282.611C102.037 280.805 103.833 279.361 103.833 279.361C104.331 284.889 102.055 291.338 102.055 291.338C105.16 291.408 110.857 295.503 110.946 295.566L110.947 295.567C110.947 295.567 122.113 302.487 129.537 310.002C126.381 313.742 124.744 323.82 128.302 327.482Z" fill="#002760"/>
<path fill-rule="evenodd" clip-rule="evenodd" d="M92.2374 285.556C92.2163 285.556 92.1953 285.554 92.1739 285.549C92.0212 285.514 91.9256 285.362 91.9604 285.209C92.1091 284.559 92.3266 283.909 92.6078 283.277C92.6718 283.134 92.8398 283.069 92.9826 283.133C93.1259 283.197 93.1902 283.364 93.1267 283.508C92.8603 284.106 92.6543 284.721 92.5138 285.336C92.4839 285.467 92.3668 285.556 92.2374 285.556ZM92.1393 289.493C92.0032 289.493 91.8828 289.395 91.8596 289.257C91.7581 288.654 91.7069 288.05 91.7069 287.461C91.7066 287.385 91.7073 287.309 91.709 287.233C91.7126 287.078 91.839 286.956 91.9929 286.956C91.9949 286.956 91.997 286.956 91.9993 286.956C92.1559 286.959 92.28 287.089 92.2767 287.246C92.2752 287.317 92.2743 287.388 92.2746 287.46C92.2746 288.018 92.3233 288.591 92.4195 289.163C92.4456 289.317 92.3411 289.463 92.1866 289.489C92.1706 289.492 92.1548 289.493 92.1393 289.493ZM93.3903 293.241C93.2855 293.241 93.1847 293.183 93.1353 293.082C92.8279 292.457 92.567 291.83 92.3594 291.218C92.3092 291.07 92.3887 290.909 92.537 290.859C92.6857 290.809 92.847 290.888 92.8972 291.036C93.0968 291.625 93.3485 292.229 93.6448 292.832C93.7138 292.973 93.6559 293.143 93.5154 293.212C93.4748 293.231 93.4322 293.241 93.3903 293.241ZM95.485 296.609C95.3985 296.609 95.3128 296.57 95.2572 296.495C94.8421 295.939 94.459 295.382 94.1192 294.839C94.0359 294.707 94.0762 294.532 94.2092 294.448C94.3418 294.366 94.5169 294.405 94.6004 294.538C94.9322 295.068 95.3062 295.612 95.7123 296.156C95.806 296.282 95.7802 296.459 95.6544 296.553C95.6034 296.591 95.544 296.609 95.485 296.609ZM98.0615 299.635C97.9866 299.635 97.9118 299.605 97.856 299.547C97.3834 299.051 96.9312 298.551 96.5121 298.061C96.41 297.942 96.4243 297.763 96.5434 297.661C96.6626 297.559 96.8417 297.573 96.9434 297.692C97.3562 298.175 97.8015 298.667 98.2669 299.156C98.3753 299.269 98.3708 299.448 98.2572 299.556C98.2022 299.609 98.1318 299.635 98.0615 299.635ZM100.927 302.392C100.859 302.392 100.792 302.368 100.738 302.32C100.229 301.867 99.7349 301.411 99.2693 300.963C99.1561 300.855 99.1525 300.675 99.2613 300.562C99.3699 300.45 99.5495 300.446 99.6624 300.554C100.123 300.997 100.612 301.448 101.116 301.897C101.232 302.001 101.243 302.18 101.139 302.297C101.082 302.36 101.005 302.392 100.927 302.392ZM103.978 304.942C103.917 304.942 103.854 304.922 103.802 304.881C103.269 304.46 102.748 304.037 102.252 303.624C102.132 303.524 102.116 303.345 102.216 303.224C102.317 303.104 102.496 303.088 102.616 303.189C103.107 303.599 103.625 304.018 104.154 304.436C104.277 304.533 104.298 304.712 104.201 304.834C104.145 304.905 104.062 304.942 103.978 304.942ZM107.16 307.335C107.103 307.335 107.045 307.318 106.995 307.281C106.444 306.886 105.903 306.488 105.386 306.1C105.261 306.006 105.236 305.828 105.33 305.703C105.424 305.578 105.602 305.552 105.727 305.646C106.241 306.033 106.779 306.428 107.326 306.821C107.453 306.912 107.482 307.09 107.391 307.217C107.335 307.294 107.248 307.335 107.16 307.335ZM110.431 309.602C110.377 309.602 110.322 309.586 110.274 309.554C109.728 309.189 109.177 308.814 108.625 308.432C108.496 308.342 108.464 308.166 108.553 308.037C108.642 307.908 108.819 307.876 108.948 307.965C109.499 308.346 110.047 308.719 110.59 309.083C110.72 309.17 110.755 309.346 110.668 309.476C110.613 309.558 110.523 309.602 110.431 309.602ZM113.767 311.774C113.714 311.774 113.662 311.76 113.614 311.73C113.067 311.382 112.507 311.023 111.938 310.652C111.806 310.567 111.769 310.391 111.855 310.26C111.94 310.128 112.115 310.091 112.247 310.177C112.815 310.546 113.374 310.905 113.919 311.251C114.052 311.335 114.091 311.511 114.006 311.643C113.952 311.728 113.86 311.774 113.767 311.774ZM117.143 313.885C117.092 313.885 117.04 313.872 116.994 313.843C116.455 313.509 115.889 313.159 115.301 312.792C115.168 312.709 115.128 312.534 115.211 312.401C115.294 312.268 115.469 312.227 115.602 312.311C116.189 312.677 116.754 313.027 117.292 313.36C117.426 313.443 117.467 313.618 117.385 313.751C117.331 313.838 117.238 313.885 117.143 313.885ZM120.52 315.997C120.467 315.997 120.414 315.983 120.366 315.952C119.871 315.632 119.307 315.277 118.686 314.891C118.553 314.808 118.512 314.633 118.595 314.5C118.678 314.367 118.854 314.327 118.986 314.409C119.61 314.798 120.177 315.154 120.674 315.475C120.806 315.56 120.844 315.736 120.758 315.868C120.704 315.951 120.613 315.997 120.52 315.997ZM120.983 318.467C120.871 318.467 120.765 318.401 120.72 318.29C120.661 318.145 120.731 317.98 120.876 317.921C121.817 317.54 121.89 317.258 121.89 317.18C121.89 317.141 121.876 317.099 121.849 317.052C121.771 316.916 121.817 316.742 121.953 316.664C122.089 316.587 122.263 316.633 122.341 316.769C122.418 316.903 122.457 317.041 122.457 317.18C122.457 317.659 122.01 318.074 121.09 318.447C121.055 318.461 121.019 318.467 120.983 318.467ZM117.121 319.444C116.986 319.444 116.867 319.347 116.842 319.21C116.815 319.056 116.917 318.908 117.072 318.881C117.795 318.751 118.447 318.618 119.011 318.484C119.161 318.447 119.316 318.541 119.352 318.694C119.389 318.846 119.295 318.999 119.142 319.035C118.568 319.172 117.905 319.308 117.172 319.439C117.155 319.442 117.138 319.444 117.121 319.444ZM113.176 320.028C113.035 320.028 112.913 319.923 112.895 319.779C112.875 319.624 112.986 319.482 113.141 319.463C113.837 319.376 114.5 319.286 115.111 319.197C115.265 319.173 115.411 319.282 115.433 319.437C115.456 319.591 115.349 319.736 115.193 319.758C114.578 319.848 113.911 319.938 113.212 320.026C113.2 320.027 113.188 320.028 113.176 320.028ZM109.214 320.464C109.07 320.464 108.946 320.355 108.932 320.208C108.917 320.052 109.031 319.913 109.187 319.898C109.862 319.832 110.523 319.764 111.166 319.694C111.324 319.676 111.461 319.789 111.479 319.945C111.496 320.1 111.384 320.241 111.228 320.258C110.583 320.328 109.92 320.397 109.242 320.463C109.233 320.464 109.223 320.464 109.214 320.464ZM105.245 320.815C105.099 320.815 104.974 320.703 104.962 320.554C104.95 320.398 105.066 320.261 105.223 320.249C105.892 320.195 106.554 320.139 107.205 320.082C107.362 320.069 107.499 320.183 107.513 320.339C107.527 320.495 107.412 320.633 107.255 320.647C106.602 320.705 105.939 320.76 105.268 320.814C105.26 320.815 105.252 320.815 105.245 320.815ZM101.271 321.109C101.123 321.109 100.999 320.995 100.988 320.845C100.978 320.688 101.096 320.553 101.252 320.542C101.918 320.497 102.58 320.45 103.238 320.402C103.394 320.39 103.53 320.507 103.542 320.664C103.553 320.82 103.436 320.956 103.279 320.967C102.621 321.016 101.957 321.063 101.291 321.108C101.284 321.109 101.278 321.109 101.271 321.109ZM97.2969 321.361C97.1477 321.361 97.0227 321.245 97.0139 321.094C97.0047 320.937 97.124 320.803 97.2806 320.794C97.9419 320.755 98.6051 320.715 99.2673 320.673C99.4215 320.662 99.5586 320.782 99.5687 320.938C99.5786 321.095 99.4597 321.229 99.3034 321.239C98.6399 321.281 97.9763 321.321 97.3138 321.36C97.3083 321.361 97.3025 321.361 97.2969 321.361ZM93.3186 321.579C93.1686 321.579 93.043 321.461 93.0353 321.309C93.0275 321.153 93.1478 321.02 93.3044 321.012C93.962 320.978 94.6253 320.943 95.2926 320.907C95.4442 320.896 95.5832 321.018 95.5915 321.174C95.6001 321.331 95.4803 321.465 95.3237 321.473C94.6559 321.51 93.9913 321.545 93.3332 321.578C93.3283 321.579 93.3236 321.579 93.3186 321.579ZM89.3382 321.769C89.1875 321.769 89.0619 321.65 89.055 321.498C89.048 321.341 89.1692 321.209 89.3258 321.202C89.9784 321.173 90.6423 321.142 91.3154 321.11C91.4709 321.102 91.6048 321.223 91.6125 321.38C91.62 321.536 91.4992 321.669 91.3425 321.677C90.669 321.709 90.0044 321.739 89.3513 321.768C89.3469 321.769 89.3427 321.769 89.3382 321.769ZM85.3558 321.935C85.2042 321.935 85.0783 321.815 85.0724 321.662C85.0664 321.505 85.1884 321.374 85.3449 321.368C85.9893 321.342 86.654 321.316 87.3357 321.287C87.4953 321.284 87.6248 321.402 87.6313 321.559C87.6378 321.716 87.5162 321.848 87.3595 321.854C86.6773 321.883 86.012 321.909 85.3672 321.934C85.3634 321.934 85.3597 321.935 85.3558 321.935ZM81.37 322.078C81.2178 322.078 81.0916 321.958 81.0866 321.804C81.0814 321.648 81.2039 321.516 81.3609 321.511C81.9893 321.49 82.6551 321.467 83.3534 321.442C83.5051 321.435 83.6417 321.558 83.6473 321.715C83.6531 321.872 83.5306 322.003 83.374 322.009C82.6751 322.034 82.0087 322.057 81.3797 322.078C81.3767 322.078 81.3733 322.078 81.37 322.078ZM77.3778 322.2C77.2247 322.2 77.0985 322.078 77.0942 321.924C77.0901 321.768 77.2133 321.637 77.3704 321.633C77.9381 321.617 78.6084 321.598 79.3665 321.575C79.514 321.573 79.6543 321.693 79.6589 321.85C79.6637 322.007 79.5405 322.137 79.3837 322.142C78.625 322.165 77.9542 322.184 77.3859 322.2C77.3833 322.2 77.3805 322.2 77.3778 322.2ZM75.2674 322.254C75.1135 322.254 74.9871 322.131 74.9835 321.977C74.9799 321.82 75.104 321.69 75.2607 321.686L75.3667 321.684C75.5332 321.688 75.6532 321.805 75.6565 321.961C75.6598 322.118 75.5357 322.248 75.3789 322.251L75.2739 322.254C75.2718 322.254 75.2696 322.254 75.2674 322.254Z" fill="#001F44"/>
<path fill-rule="evenodd" clip-rule="evenodd" d="M110.797 295.602C110.701 295.552 103.929 292.047 101.02 292.758C101.02 292.758 101.769 286.097 99.9697 282.618C101.821 280.808 103.631 279.361 103.631 279.361C104.132 284.901 101.839 291.365 101.839 291.365C104.967 291.434 110.707 295.538 110.797 295.602Z" fill="#001F44"/>
<path fill-rule="evenodd" clip-rule="evenodd" d="M128.472 327.596C128.379 327.622 128.284 327.645 128.188 327.667C124.68 324.003 126.294 313.918 129.406 310.177C136.209 317.163 139.823 324.661 128.472 327.596Z" fill="#0049A7"/>
<path fill-rule="evenodd" clip-rule="evenodd" d="M71.652 325.586L60.8246 324.172C62.9125 323.802 65.5581 323.331 66.5932 323.145C68.3421 322.832 67.3756 320.469 69.6973 316.898L70.9261 316.84C70.962 316.856 70.9977 316.873 71.0345 316.889C70.6239 319.915 71.0356 323.01 71.652 325.586Z" fill="#F6816B"/>
<path fill-rule="evenodd" clip-rule="evenodd" d="M75.7922 327.555C75.7646 328.025 75.7123 328.315 75.635 328.358C75.083 328.663 70.736 328.484 69.9771 327.772C69.8638 327.666 69.7783 327.322 69.7148 326.809C69.4195 324.389 69.632 318.255 69.8501 316.125C69.8914 315.684 69.9356 315.416 69.9771 315.385C70.253 315.171 72.875 315.109 74.6689 315.251C74.7711 315.26 74.876 315.544 74.9781 316.026C75.4722 318.341 75.9276 325.197 75.7922 327.555Z" fill="#0049A7"/>
<path fill-rule="evenodd" clip-rule="evenodd" d="M96.2217 288.287C96.0296 288.234 76.9103 283.023 72.7057 288.832C69.6939 292.991 68.702 299.161 71.4017 304.764C66.4285 298.579 65.3849 290.548 68.1674 282.867C68.1674 282.867 68.187 282.862 68.2299 282.853C81.1871 280.084 96.0237 288.178 96.2217 288.287Z" fill="#001F44"/>
<path fill-rule="evenodd" clip-rule="evenodd" d="M152.492 311.254C150.811 311.212 144.92 312.569 142.695 313.092C139.037 294.317 133.553 261.164 133.704 257.815C133.912 253.116 154.523 243.131 154.523 243.131C151.76 257.616 151.914 292.669 152.492 311.254Z" fill="#024389"/>
<path fill-rule="evenodd" clip-rule="evenodd" d="M164.101 324.787C164.029 325.731 146.822 325.512 145.47 325.585C145.32 325.593 145.049 324.789 144.688 323.347C144.407 322.23 144.072 320.73 143.696 318.929C146.221 318.888 150.539 317.896 152.461 317.257C152.618 320.587 152.78 322.645 152.914 322.9C153.67 324.352 164.172 323.844 164.101 324.787Z" fill="#F9AE93"/>
<path fill-rule="evenodd" clip-rule="evenodd" d="M156.58 244.683C128.318 268.068 112.539 290.96 110.674 295.602C110.674 295.602 104.915 291.444 101.786 291.374C101.786 291.374 104.061 284.926 103.564 279.399C103.564 279.399 96.169 285.351 96.0269 288.185C96.0269 288.185 81.0501 279.943 67.9817 282.738C67.9391 282.746 67.9191 282.752 67.9191 282.752C67.9191 282.752 64.6001 228.054 156.605 227.723C156.122 227.737 156.315 238.107 156.58 244.683Z" fill="#0049A7"/>
<path fill-rule="evenodd" clip-rule="evenodd" d="M213.241 233.912C209.272 236.63 208.705 237.198 208.351 238.618C207.996 240.038 207.854 245.577 205.87 243.375C203.885 241.175 202.421 242.263 194.766 244.464C188.377 246.302 185.155 239.96 172.468 239.124C170.271 238.979 167.788 239.001 164.957 239.257C164.92 238.059 164.599 231.715 164.517 230.294C166.703 229.786 172.407 231.73 180.495 231.73C191.176 231.73 196.749 226.913 196.749 226.913C196.749 226.913 199.775 223.116 203.65 224.155C207.523 225.197 213.241 233.912 213.241 233.912Z" fill="#F9AE93"/>
<path fill-rule="evenodd" clip-rule="evenodd" d="M212.671 233.969C208.82 233.364 205.778 227.934 203.729 228.064C201.68 228.193 200.464 227.44 200.752 226.669C201.04 225.898 198.127 224.185 201.745 224.412C205.362 224.638 211.893 227.611 212.502 228.936C213.11 230.262 212.671 233.969 212.671 233.969Z" fill="#F6816B"/>
<path fill-rule="evenodd" clip-rule="evenodd" d="M198.249 226.308C198.249 226.308 201.934 225.252 202.466 225.595C202.998 225.938 201.013 227.172 201.763 227.519C202.514 227.866 205.36 226.109 206.113 227.097C206.866 228.085 205.97 227.618 206.404 228.33C206.838 229.041 209.936 231.406 211.755 233.37C213.575 235.334 204.319 220.84 202.637 220.262C200.954 219.685 198.249 226.308 198.249 226.308Z" fill="#FFA608"/>
<path fill-rule="evenodd" clip-rule="evenodd" d="M199.74 216.479C196.338 216.753 191.286 218.689 189.651 218.949C189.651 218.949 191.204 219.853 190.333 219.821C189.462 219.789 183.888 222.239 183.682 222.396C183.474 222.554 187.391 222.352 186.255 222.87C185.118 223.388 184.875 223.69 184.92 224.003C184.964 224.317 188.851 223.936 188.42 224.511C187.988 225.085 185.356 226.859 186.687 227.294C188.018 227.729 190.81 230.638 192.895 229.572C194.979 228.505 203.021 223.255 204.31 223.142C205.599 223.029 199.74 216.479 199.74 216.479Z" fill="#FFA608"/>
<path fill-rule="evenodd" clip-rule="evenodd" d="M219.629 233.577L219.626 233.574C219.482 233.494 216.393 231.812 213.717 233.969L199.498 215.451C206.024 209.997 218.782 207.85 225.177 219.729C229.024 226.882 224.131 231.242 219.629 233.577Z" fill="#002760"/>
<path fill-rule="evenodd" clip-rule="evenodd" d="M214.906 235.761C214.254 235.959 213.859 236.051 213.859 236.051C213.859 236.051 192.219 207.841 191.247 206.574C190.275 205.307 190.77 204.297 192.437 206.662C194.105 209.023 199.562 215.757 199.562 215.757L214.906 235.761Z" fill="#001F44"/>
<path fill-rule="evenodd" clip-rule="evenodd" d="M219.575 233.617C222.452 235.369 223.933 231.894 222.978 230.221C222.978 230.221 224.865 230.999 223.913 234.037C223.913 234.037 224.746 233.94 224.833 232.62C224.833 232.62 225.652 236.105 221.595 235.713C221.595 235.713 221.614 236.383 222.752 236.397C222.752 236.397 220.868 238.391 217.848 236.455C214.829 234.519 214.829 235.486 214.829 235.486L213.657 234C213.657 234 215.987 231.795 219.575 233.617Z" fill="#FFA608"/>
<path fill-rule="evenodd" clip-rule="evenodd" d="M201.348 227.462C202.875 219.26 196.452 218.219 194.524 223.389C192.597 228.56 197.629 229.388 197.629 229.388L201.348 227.462Z" fill="#F9AE93"/>
<path fill-rule="evenodd" clip-rule="evenodd" d="M224.675 218.857C224.317 219.152 223.662 218.887 223.212 218.263C222.762 217.64 222.687 216.895 223.045 216.6C223.403 216.304 224.058 216.57 224.508 217.193C224.958 217.817 225.032 218.561 224.675 218.857Z" fill="#001F44"/>
<path fill-rule="evenodd" clip-rule="evenodd" d="M164.929 239.772C164.881 240.629 157.505 249.872 157.225 250.207C157.135 250.313 156.995 248.026 156.872 244.872C156.612 238.239 156.421 227.778 156.897 227.764C158.158 227.721 163.76 227.524 164.228 228.622C164.43 229.096 164.598 231.098 164.716 233.282C164.797 234.711 164.856 236.218 164.892 237.425C164.929 238.625 164.942 239.529 164.929 239.772Z" fill="#005CC1"/>
<path fill-rule="evenodd" clip-rule="evenodd" d="M181.65 269.378C181.649 269.378 181.648 269.377 181.647 269.377C179.085 268.889 176.38 268.625 173.736 268.928C173.707 267.094 173.438 263.809 173.263 262.287C173.718 262.315 174.149 262.34 174.548 262.365C185.594 263.07 193.807 264.057 195.222 270.115C196.28 274.642 189.668 270.908 181.65 269.378Z" fill="#F9AE93"/>
<path fill-rule="evenodd" clip-rule="evenodd" d="M174.007 270.326C173.676 270.852 164.776 272.184 163.871 272.281C163.696 272.298 163.542 271.878 163.408 271.184C162.985 268.996 162.771 264.094 162.88 261.615C162.92 260.772 162.994 260.208 163.111 260.131C166.469 257.887 173.342 261.321 173.485 261.464C173.51 261.489 173.559 261.801 173.616 262.29C173.793 263.833 174.064 267.167 174.093 269.028C174.104 269.723 174.081 270.211 174.007 270.326Z" fill="#0049A7"/>
<path fill-rule="evenodd" clip-rule="evenodd" d="M163.685 268.95C163.685 269.64 164.244 270.199 164.934 270.199C165.624 270.199 166.183 269.64 166.183 268.95C166.183 268.26 165.624 267.701 164.934 267.701C164.244 267.701 163.685 268.26 163.685 268.95Z" fill="#005CC1"/>
<path fill-rule="evenodd" clip-rule="evenodd" d="M153.682 316.891C153.671 316.977 153.3 317.135 152.7 317.324C150.76 317.934 146.402 318.882 143.853 318.921C142.796 318.938 142.05 318.799 141.912 318.416C141.338 316.822 141.768 312.989 141.768 312.989C141.886 312.961 142.17 312.894 142.575 312.803C144.817 312.293 150.754 310.97 152.448 311.011C152.692 311.014 152.847 311.05 152.893 311.117C153.323 311.741 153.754 316.406 153.682 316.891Z" fill="#005CC1"/>
<path fill-rule="evenodd" clip-rule="evenodd" d="M143.279 316.216C143.279 316.791 143.745 317.257 144.32 317.257C144.895 317.257 145.361 316.791 145.361 316.216C145.361 315.641 144.895 315.175 144.32 315.175C143.745 315.175 143.279 315.641 143.279 316.216Z" fill="#024389"/>
<path fill-rule="evenodd" clip-rule="evenodd" d="M211.889 283.915C210.996 284.078 210.141 283.479 209.98 282.576L206.188 261.328C206.026 260.426 206.62 259.562 207.513 259.399C208.406 259.236 209.261 259.836 209.422 260.739L213.214 281.986C213.375 282.889 212.782 283.753 211.889 283.915Z" fill="white"/>
<path fill-rule="evenodd" clip-rule="evenodd" d="M223.262 291.335C223.099 290.442 223.699 289.587 224.601 289.426L245.849 285.634C246.752 285.473 247.615 286.066 247.778 286.96C247.941 287.853 247.341 288.707 246.439 288.869L225.191 292.661C224.288 292.822 223.425 292.228 223.262 291.335Z" fill="white"/>
<path fill-rule="evenodd" clip-rule="evenodd" d="M220.21 284.475C219.447 283.948 219.258 282.904 219.788 282.144L232.25 264.256C232.78 263.496 233.827 263.308 234.589 263.836C235.352 264.363 235.541 265.407 235.011 266.167L222.549 284.055C222.019 284.815 220.972 285.003 220.21 284.475Z" fill="white"/>
<path fill-rule="evenodd" clip-rule="evenodd" d="M172.43 238.837C170.243 238.695 167.772 238.716 164.955 238.966C164.918 237.797 164.599 231.607 164.517 230.221C166.118 233.675 169.839 236.894 172.43 238.837Z" fill="#F6816B"/>
<path fill-rule="evenodd" clip-rule="evenodd" d="M198.987 226.763C199.531 223.746 197.578 223.399 197.041 224.67C196.504 225.941 197.591 226.201 197.316 226.763C197.041 227.325 195.386 228.342 196.616 228.104C197.846 227.866 198.941 227.019 198.987 226.763Z" fill="#F6816B"/>
<path fill-rule="evenodd" clip-rule="evenodd" d="M181.591 269.366C179.047 268.878 176.36 268.615 173.732 268.918C173.704 267.086 173.437 263.806 173.263 262.287C177.254 264.191 174.234 267.05 181.591 269.366Z" fill="#F6816B"/>
<path fill-rule="evenodd" clip-rule="evenodd" d="M152.441 317.673C151.21 320.478 145.052 321.067 145.052 321.735C145.052 322.008 144.884 322.738 144.685 323.503C144.405 322.434 144.071 320.998 143.696 319.274C146.215 319.235 150.523 318.285 152.441 317.673Z" fill="#F6816B"/>
<path fill-rule="evenodd" clip-rule="evenodd" d="M69.0195 273.278C78.0696 273.586 84.8657 280.82 93.4764 282.703C94.6611 282.962 95.9486 283.206 97.1637 283.07C97.8049 282.998 98.3955 282.798 98.9193 282.421C99.3864 282.084 100.17 281.335 100.724 281.928C100.981 282.202 101.394 281.791 101.138 281.517C100.29 280.609 99.2514 281.51 98.4979 282.009C97.4063 282.732 95.9898 282.552 94.7616 282.357C92.5538 282.007 90.4288 281.265 88.3964 280.356C84.2798 278.516 80.4836 276.03 76.2899 274.35C73.968 273.421 71.5313 272.783 69.0195 272.698C68.6425 272.685 68.643 273.266 69.0195 273.278Z" fill="#57A1F2"/>
<path fill-rule="evenodd" clip-rule="evenodd" d="M104.756 284.526C106.658 285.07 108.284 286.395 109.193 288.185C109.596 288.981 109.922 289.825 110.753 290.254C111.575 290.678 112.541 290.628 113.432 290.557C113.804 290.527 113.807 289.934 113.432 289.964C112.518 290.037 111.388 290.138 110.646 289.471C109.949 288.844 109.702 287.767 109.168 287.002C108.136 285.522 106.627 284.445 104.911 283.954C104.549 283.851 104.395 284.423 104.756 284.526Z" fill="#57A1F2"/>
<path fill-rule="evenodd" clip-rule="evenodd" d="M72.7686 263.711C76.313 263.631 79.8481 264.183 83.1978 265.337C86.5276 266.484 89.5167 268.249 92.2936 270.384C94.7979 272.309 97.2201 274.421 100.085 275.813C101.576 276.538 103.134 276.975 104.764 277.268C106.477 277.575 108.256 277.806 109.819 278.618C112.557 280.04 114.66 283.117 118.009 283.109C118.387 283.108 118.388 282.525 118.009 282.526C115.021 282.533 112.966 279.8 110.599 278.384C109.146 277.515 107.501 277.159 105.85 276.868C104.141 276.567 102.462 276.249 100.869 275.537C97.911 274.214 95.4333 272.078 92.8962 270.115C90.249 268.068 87.4521 266.325 84.3103 265.122C80.6403 263.717 76.7004 263.039 72.7686 263.128C72.391 263.136 72.3896 263.72 72.7686 263.711Z" fill="#57A1F2"/>
<path fill-rule="evenodd" clip-rule="evenodd" d="M77.7651 255.371C84.8483 255.746 92.0566 256.771 98.4878 259.882C101.341 261.262 104.012 263.029 106.285 265.228C108.561 267.429 110.235 270.181 113.223 271.543C114.925 272.319 116.737 272.81 118.374 273.729C120.11 274.703 121.656 275.959 123.192 277.208C123.481 277.444 123.899 277.036 123.607 276.798C122.28 275.718 120.947 274.634 119.494 273.719C118.056 272.814 116.513 272.213 114.927 271.615C113.29 270.998 111.827 270.244 110.569 269.021C109.412 267.896 108.443 266.602 107.324 265.442C102.76 260.712 96.5341 257.875 90.1638 256.393C86.0987 255.447 81.9299 255.012 77.7651 254.792C77.3872 254.772 77.3882 255.351 77.7651 255.371Z" fill="#57A1F2"/>
<path fill-rule="evenodd" clip-rule="evenodd" d="M86.1685 246.785C88.2143 246.127 90.3659 246.042 92.4568 246.532C94.3954 246.985 96.2063 247.855 97.9289 248.848C99.6961 249.867 101.396 251.006 103.11 252.112C104.948 253.296 106.786 254.481 108.624 255.665C110.732 257.024 112.84 258.382 114.948 259.741C115.265 259.946 115.558 259.434 115.242 259.23C111.404 256.756 107.566 254.283 103.729 251.81C100.308 249.605 96.8464 247.033 92.8569 246.02C90.594 245.446 88.2395 245.499 86.0135 246.214C85.6573 246.329 85.8096 246.9 86.1685 246.785Z" fill="#57A1F2"/>
<path fill-rule="evenodd" clip-rule="evenodd" d="M96.8481 240.374C103.298 241.728 107.789 246.969 112.604 251.068C114.001 252.258 115.459 253.377 117.026 254.331C117.349 254.527 117.642 254.018 117.321 253.822C111.701 250.406 107.684 244.868 101.906 241.675C100.367 240.824 98.7243 240.168 97.0032 239.807C96.6368 239.73 96.4801 240.297 96.8481 240.374Z" fill="#57A1F2"/>
<path fill-rule="evenodd" clip-rule="evenodd" d="M107.956 235.309C108.468 235.906 109.09 236.375 109.718 236.839C110.45 237.379 111.158 237.944 111.848 238.537C113.153 239.659 114.403 240.845 115.74 241.929C118.18 243.907 121.038 245.589 124.26 245.63C124.633 245.634 124.633 245.052 124.26 245.048C121.011 245.006 118.158 243.2 115.738 241.178C114.463 240.113 113.255 238.969 111.987 237.895C110.805 236.893 109.379 236.079 108.366 234.898C108.122 234.614 107.714 235.027 107.956 235.309Z" fill="#57A1F2"/>
<path fill-rule="evenodd" clip-rule="evenodd" d="M118.421 232.442C122.252 235.152 125.807 238.268 128.957 241.745C129.773 242.645 130.512 243.594 130.952 244.737C131.35 245.768 131.584 246.851 132.058 247.854C132.862 249.556 134.165 250.973 135.63 252.137C137.339 253.496 139.253 254.56 141.174 255.587C141.505 255.764 141.8 255.262 141.468 255.084C138.105 253.286 134.374 251.253 132.623 247.689C132.109 246.643 131.882 245.495 131.451 244.417C131.046 243.407 130.421 242.533 129.71 241.716C128.188 239.966 126.512 238.332 124.787 236.782C122.861 235.051 120.831 233.436 118.716 231.94C118.409 231.723 118.117 232.227 118.421 232.442Z" fill="#57A1F2"/>
<path fill-rule="evenodd" clip-rule="evenodd" d="M127.541 230.72C130.703 233.87 133.333 237.533 135.289 241.548C136.13 243.276 136.717 245.355 138.366 246.508C139.766 247.486 141.533 247.633 143.087 248.245C144.039 248.62 144.702 249.187 145.273 250.028C145.736 250.71 146.25 251.463 147.162 251.459C147.537 251.458 147.538 250.874 147.162 250.876C146.315 250.879 145.887 249.852 145.453 249.267C144.986 248.637 144.37 248.181 143.659 247.857C142.17 247.18 140.466 247.056 139.036 246.239C137.233 245.21 136.647 243.008 135.792 241.254C134.859 239.339 133.772 237.499 132.547 235.756C131.178 233.809 129.639 231.986 127.953 230.307C127.687 230.041 127.274 230.454 127.541 230.72Z" fill="#57A1F2"/>
<path fill-rule="evenodd" clip-rule="evenodd" d="M136.648 229.835C138.067 232.787 141.419 234.061 143.386 236.57C145.243 238.939 146.413 242.113 149.339 243.42C150.78 244.064 152.831 244.313 153.568 245.894C153.727 246.236 154.235 245.939 154.076 245.599C153.461 244.279 152.027 243.795 150.745 243.339C150.011 243.078 149.289 242.803 148.641 242.363C147.995 241.923 147.445 241.352 146.957 240.747C145.951 239.499 145.198 238.073 144.266 236.772C143.338 235.478 142.202 234.456 140.947 233.483C139.496 232.359 137.97 231.232 137.157 229.539C136.993 229.199 136.485 229.496 136.648 229.835Z" fill="#57A1F2"/>
<path fill-rule="evenodd" clip-rule="evenodd" d="M148.37 229.053C150.575 231.031 152.612 233.199 154.464 235.534C154.698 235.831 155.102 235.407 154.87 235.114C153.018 232.778 150.981 230.611 148.776 228.632C148.498 228.383 148.091 228.802 148.37 229.053Z" fill="#57A1F2"/>
<path fill-rule="evenodd" clip-rule="evenodd" d="M163.268 271.29C140.089 276.276 90.9954 286.197 101.397 259.433C110.687 235.535 141.752 230.464 150.846 236.02C159.94 241.575 132.658 251.213 131.379 255.748C130.427 259.121 148.738 260.847 162.742 261.803C162.635 264.26 162.848 269.121 163.268 271.29Z" fill="#005CC1"/>
</svg>
