<svg width="134" height="48" viewBox="0 0 134 48" fill="none" xmlns="http://www.w3.org/2000/svg">
<path fill-rule="evenodd" clip-rule="evenodd" d="M7.22583 7.17704H26.2056C32.1826 7.17704 37.0729 12.2123 37.0729 18.3709C37.0729 24.526 32.1826 29.5648 26.2056 29.5648H19.7721L7.22583 7.17704Z" fill="#4285F4"/>
<path d="M30.2258 40.823H7.22583L19.761 18.462C19.761 18.462 27.8484 18.4616 29.4106 18.4734C30.9727 18.4853 33.6923 18.4139 36.8153 20.7485C39.4083 22.7987 41.0874 26.022 41.0874 29.6309C41.0874 35.785 36.1988 40.823 30.2258 40.823Z" fill="url(#paint0_linear)"/>
<path d="M26.1905 29.5648H19.7621L16.6506 24.0131L19.7621 18.4609H30.2124C32.6833 18.4609 34.9684 19.3227 36.798 20.7689C35.7286 25.782 31.3673 29.5648 26.1905 29.5648Z" fill="#1967D2"/>
<path d="M13.6089 24.0144L7.22559 35.7076L7.22559 12.2146L13.6089 24.0144Z" fill="#FBBC05"/>
<path d="M50.9125 34.3036H60.1127C62.2373 34.3036 63.814 33.7263 64.8426 32.5717C65.8809 31.4076 66.4 29.9047 66.4 28.063C66.4 27.0707 66.1549 26.1594 65.6646 25.3292C65.1839 24.4895 64.4581 23.8693 63.4871 23.4685C64.1024 23.0964 64.583 22.5715 64.9291 21.894C65.2752 21.2165 65.4483 20.4102 65.4483 19.4751C65.4483 18.5686 65.2368 17.6716 64.8138 16.7842C64.3908 15.8968 63.7226 15.162 62.8093 14.58C61.896 13.9884 60.6991 13.6926 59.2186 13.6926H50.9125V34.3036ZM54.8925 21.7366V17.3281H59.161C59.9108 17.3281 60.4828 17.5428 60.877 17.9722C61.2712 18.4016 61.4682 18.9312 61.4682 19.561C61.4682 20.3148 61.2471 20.8683 60.8049 21.2213C60.3723 21.5648 59.8243 21.7366 59.161 21.7366H54.8925ZM54.8925 30.6394V25.3722H59.7089C60.6222 25.3722 61.3048 25.6155 61.7566 26.1021C62.2181 26.5792 62.4488 27.1852 62.4488 27.9199C62.4488 28.7501 62.1893 29.4133 61.6701 29.9095C61.1606 30.3961 60.5069 30.6394 59.7089 30.6394H54.8925Z" fill="#090B0C"/>
<path d="M76.8035 34.733C78.3032 34.733 79.6827 34.3418 80.9421 33.5593C82.2111 32.7769 83.1388 31.6795 83.7253 30.2673L79.8029 29.1509C79.2069 30.4486 78.1301 31.0975 76.5727 31.0975C75.5056 31.0975 74.6644 30.8016 74.0492 30.21C73.4435 29.6184 73.0686 28.7692 72.9244 27.6623H83.855C84.0185 25.792 83.8262 24.1651 83.2782 22.7815C82.7303 21.3978 81.8843 20.3244 80.7402 19.561C79.5962 18.7976 78.207 18.4159 76.5727 18.4159C75.0346 18.4159 73.6742 18.7642 72.4917 19.4608C71.3093 20.1478 70.3816 21.1164 69.7086 22.3664C69.0357 23.6164 68.6992 25.0859 68.6992 26.7749C68.6992 28.3207 69.0405 29.6948 69.723 30.8971C70.4152 32.0898 71.367 33.0297 72.5783 33.7168C73.7992 34.3943 75.2076 34.733 76.8035 34.733ZM76.7458 21.7938C77.6879 21.7938 78.4089 22.0276 78.9088 22.4952C79.4184 22.9628 79.7452 23.7214 79.8894 24.771H73.0253C73.4387 22.7862 74.6788 21.7938 76.7458 21.7938Z" fill="#090B0C"/>
<path d="M85.1058 34.3036H89.7203L92.9505 29.5516L96.1518 34.3036H100.766L95.1713 26.4886L100.622 18.8453H96.0076L92.9505 23.4256L89.8357 18.8453H85.2212L90.6721 26.4886L85.1058 34.3036Z" fill="#090B0C"/>
<path d="M110.052 34.733C111.551 34.733 112.931 34.3418 114.19 33.5593C115.459 32.7769 116.387 31.6795 116.973 30.2673L113.051 29.1509C112.455 30.4486 111.378 31.0975 109.821 31.0975C108.754 31.0975 107.913 30.8016 107.297 30.21C106.692 29.6184 106.317 28.7692 106.172 27.6623H117.103C117.267 25.792 117.074 24.1651 116.526 22.7815C115.978 21.3978 115.132 20.3244 113.988 19.561C112.844 18.7976 111.455 18.4159 109.821 18.4159C108.283 18.4159 106.922 18.7642 105.74 19.4608C104.557 20.1478 103.63 21.1164 102.957 22.3664C102.284 23.6164 101.947 25.0859 101.947 26.7749C101.947 28.3207 102.289 29.6948 102.971 30.8971C103.663 32.0898 104.615 33.0297 105.826 33.7168C107.047 34.3943 108.456 34.733 110.052 34.733ZM109.994 21.7938C110.936 21.7938 111.657 22.0276 112.157 22.4952C112.666 22.9628 112.993 23.7214 113.138 24.771H106.273C106.687 22.7862 107.927 21.7938 109.994 21.7938Z" fill="#090B0C"/>
<path d="M120.936 34.3036H124.858V13.2632H120.936V34.3036Z" fill="#090B0C"/>
<defs>
<linearGradient id="paint0_linear" x1="24.1566" y1="40.823" x2="24.1566" y2="18.4094" gradientUnits="userSpaceOnUse">
<stop stop-color="#34A853"/>
<stop offset="1" stop-color="#43CD68"/>
</linearGradient>
</defs>
</svg>
