<svg width="90" height="90" viewBox="0 0 90 90" fill="none" xmlns="http://www.w3.org/2000/svg">
<path fill-rule="evenodd" clip-rule="evenodd" d="M57.1605 17.7659C57.1605 26.0946 63.9221 32.8463 72.2631 32.8463C73.1815 32.8418 74.0976 32.7536 75 32.5829V62.4805C75 75.0585 67.5806 82.5 54.9841 82.5H27.5489C14.9194 82.5 7.5 75.0585 7.5 62.4805V35.0854C7.5 22.5073 14.9194 15 27.5489 15H57.4243C57.247 15.9113 57.1586 16.8376 57.1605 17.7659ZM49.3124 55.8622L60.0293 42.0329V41.9671C60.9467 40.7343 60.7126 38.9959 59.5017 38.0488C58.9155 37.5963 58.1707 37.4005 57.4374 37.506C56.7041 37.6115 56.045 38.0093 55.6106 38.6086L46.5754 50.2317L36.2872 42.1317C35.6998 41.6741 34.9526 41.4721 34.2142 41.5712C33.4759 41.6703 32.8086 42.0623 32.3632 42.6586L21.2835 56.9488C20.8941 57.4342 20.6844 58.039 20.69 58.661C20.6257 59.918 21.4195 61.0599 22.6214 61.4393C23.8233 61.8187 25.1301 61.3399 25.8011 60.2744L35.0671 48.289L45.3554 56.3561C45.9405 56.8279 46.6927 57.0418 47.4389 56.9486C48.1852 56.8555 48.8615 56.4633 49.3124 55.8622Z" fill="#0EA036"/>
<circle opacity="0.4" cx="73.125" cy="16.875" r="9.375" fill="#0EA036"/>
</svg>
