<svg width="90" height="90" viewBox="0 0 90 90" fill="none" xmlns="http://www.w3.org/2000/svg">
<path fill-rule="evenodd" clip-rule="evenodd" d="M31.9936 11.0129C40.1868 6.25228 50.2576 6.33549 58.3739 11.2309C66.4105 16.2259 71.2949 25.1407 71.2494 34.7304C71.0623 44.2573 65.8249 53.2125 59.278 60.1353C55.4994 64.149 51.2723 67.6981 46.6832 70.7101C46.2105 70.9834 45.6928 71.1664 45.1556 71.25C44.6385 71.228 44.1349 71.0752 43.6903 70.8054C36.6841 66.2796 30.5375 60.5026 25.5462 53.7524C21.3697 48.1176 18.9969 41.31 18.75 34.2541C18.7446 24.6459 23.8004 15.7735 31.9936 11.0129ZM36.7281 38.2304C38.1063 41.6281 41.3594 43.8444 44.9685 43.8444C47.3328 43.8614 49.6057 42.9143 51.2805 41.2143C52.9553 39.5142 53.893 37.2024 53.8846 34.7939C53.8973 31.1176 51.7329 27.7962 48.4022 26.3804C45.0715 24.9646 41.2314 25.7338 38.6749 28.3288C36.1184 30.9238 35.3499 34.8327 36.7281 38.2304Z" fill="#276BDB"/>
<ellipse opacity="0.4" cx="45" cy="78.75" rx="18.75" ry="3.75" fill="#276BDB"/>
</svg>
