<svg width="90" height="90" viewBox="0 0 90 90" fill="none" xmlns="http://www.w3.org/2000/svg">
<path opacity="0.4" d="M37.8123 59.8423H13.1541C10.0333 59.8423 7.5 62.3312 7.5 65.3973C7.5 68.4593 10.0333 70.9523 13.1541 70.9523H37.8123C40.9331 70.9523 43.4665 68.4593 43.4665 65.3973C43.4665 62.3312 40.9331 59.8423 37.8123 59.8423Z" fill="#FFA216"/>
<path opacity="0.4" d="M82.4999 23.9196C82.4999 20.8576 79.9666 18.3687 76.8499 18.3687H52.1917C49.0709 18.3687 46.5376 20.8576 46.5376 23.9196C46.5376 26.9857 49.0709 29.4746 52.1917 29.4746H76.8499C79.9666 29.4746 82.4999 26.9857 82.4999 23.9196Z" fill="#FFA216"/>
<path d="M33.2915 23.9196C33.2915 30.9196 27.5207 36.5933 20.3958 36.5933C13.275 36.5933 7.5 30.9196 7.5 23.9196C7.5 16.9237 13.275 11.25 20.3958 11.25C27.5207 11.25 33.2915 16.9237 33.2915 23.9196Z" fill="#FFA216"/>
<path d="M82.5001 65.2471C82.5001 72.243 76.7293 77.9167 69.6044 77.9167C62.4836 77.9167 56.7086 72.243 56.7086 65.2471C56.7086 58.2471 62.4836 52.5734 69.6044 52.5734C76.7293 52.5734 82.5001 58.2471 82.5001 65.2471Z" fill="#FFA216"/>
</svg>
