<svg width="90" height="90" viewBox="0 0 90 90" fill="none" xmlns="http://www.w3.org/2000/svg">
<path opacity="0.4" d="M44.9669 69.8307L20.6229 81.9904C18.7845 82.9883 16.4913 82.3221 15.4631 80.4912C15.1628 79.9156 15.004 79.2759 15 78.6257V51.408C15 54.1064 16.5215 55.7722 20.5237 57.6377L44.9669 69.8307Z" fill="#FFA216"/>
<path fill-rule="evenodd" clip-rule="evenodd" d="M33.3572 7.5H56.5105C66.6648 7.5 74.9008 11.4977 75 21.7251V78.6257C74.9959 79.2653 74.837 79.8942 74.5369 80.4579C74.0548 81.3775 73.2223 82.0601 72.2305 82.3491C71.2387 82.6381 70.1729 82.5086 69.2778 81.9904L44.9669 69.8307L20.5237 57.6378C16.5215 55.7722 15 54.1065 15 51.408V21.7251C15 11.4977 23.2359 7.5 33.3572 7.5ZM30.8435 36.0835H59.0574C60.6832 36.0835 62.0012 34.756 62.0012 33.1185C62.0012 31.481 60.6832 30.1536 59.0574 30.1536H30.8435C29.2177 30.1536 27.8998 31.481 27.8998 33.1185C27.8998 34.756 29.2177 36.0835 30.8435 36.0835Z" fill="#FFA216"/>
</svg>
