<svg width="90" height="91" viewBox="0 0 90 91" fill="none" xmlns="http://www.w3.org/2000/svg">
<path d="M38.0728 21.1223C38.2638 21.5127 38.39 21.9307 38.4465 22.3604L39.4906 37.9485L40.0089 45.7834C40.0142 46.5891 40.1401 47.3896 40.3825 48.1592C41.0085 49.6522 42.5144 50.6011 44.1527 50.5349L69.1175 48.8953C70.1985 48.8774 71.2425 49.2834 72.0197 50.0239C72.6673 50.641 73.0854 51.4483 73.2171 52.3165L73.2613 52.8438C72.2282 67.2073 61.7218 79.1876 47.4463 82.2802C33.1708 85.3728 18.532 78.8399 11.4777 66.2283C9.44395 62.5644 8.17369 58.5372 7.74143 54.383C7.56086 53.1532 7.48135 51.9111 7.50367 50.6688C7.48138 35.2694 18.403 21.9561 33.6912 18.7466C35.5313 18.4589 37.3351 19.437 38.0728 21.1223Z" fill="#276BDB"/>
<path opacity="0.4" d="M48.2624 7.73778C65.362 8.17458 79.7336 20.5209 82.4999 37.1504L82.4735 37.2731L82.398 37.4515L82.4085 37.9413C82.3693 38.5903 82.1198 39.2147 81.6898 39.719C81.2418 40.2444 80.6298 40.6022 79.9558 40.741L79.5449 40.7977L50.7419 42.6715C49.7838 42.7664 48.8299 42.4562 48.1174 41.8181C47.5237 41.2863 47.1441 40.5685 47.0369 39.7951L45.1036 10.9166C45.07 10.819 45.07 10.7131 45.1036 10.6155C45.13 9.81944 45.479 9.06701 46.0726 8.52628C46.6661 7.98554 47.4548 7.70156 48.2624 7.73778Z" fill="#276BDB"/>
</svg>
