<svg width="90" height="90" viewBox="0 0 90 90" fill="none" xmlns="http://www.w3.org/2000/svg">
<path d="M45.0449 55.6128C39.0281 55.6128 34.161 50.9253 34.161 45.0378C34.161 39.1503 39.0281 34.4253 45.0449 34.4253C51.0616 34.4253 55.8137 39.1503 55.8137 45.0378C55.8137 50.9253 51.0616 55.6128 45.0449 55.6128Z" fill="#0EA036"/>
<path opacity="0.4" d="M79.6125 53.8879C78.8844 52.7629 77.8496 51.6379 76.5083 50.9254C75.4352 50.4004 74.7454 49.5379 74.1323 48.5253C72.1778 45.3004 73.3275 41.0629 76.585 39.1503C80.4173 37.0129 81.6436 32.2504 79.4209 28.5379L76.8532 24.1129C74.6688 20.4004 69.8784 19.0879 66.0843 21.2629C62.7119 23.0629 58.3813 21.8629 56.4268 18.6754C55.8137 17.6254 55.4688 16.5004 55.5454 15.3754C55.6604 13.9129 55.2005 12.5254 54.5107 11.4004C53.0927 9.07535 50.525 7.50035 47.6891 7.50035H42.2855C39.4879 7.57535 36.9202 9.07535 35.5023 11.4004C34.7741 12.5254 34.3526 13.9129 34.4292 15.3754C34.5059 16.5004 34.1609 17.6254 33.5478 18.6754C31.5933 21.8629 27.2627 23.0629 23.9286 21.2629C20.0963 19.0879 15.3442 20.4004 13.1214 24.1129L10.5537 28.5379C8.3693 32.2504 9.59565 37.0129 13.3897 39.1503C16.6472 41.0629 17.7969 45.3004 15.8807 48.5253C15.2292 49.5379 14.5394 50.4004 13.4663 50.9254C12.1633 51.6379 11.0136 52.7629 10.4004 53.8879C8.98247 56.2128 9.05912 59.1379 10.4771 61.5754L13.1214 66.0754C14.5394 68.4754 17.1837 69.9754 19.943 69.9754C21.246 69.9754 22.7789 69.6004 24.0052 68.8504C24.9633 68.2129 26.113 67.9878 27.3777 67.9878C31.1717 67.9878 34.3526 71.1004 34.4292 74.8129C34.4292 79.1254 37.955 82.5004 42.4005 82.5004H47.6125C52.0197 82.5004 55.5454 79.1254 55.5454 74.8129C55.6604 71.1004 58.8412 67.9878 62.6352 67.9878C63.8616 67.9878 65.0113 68.2129 66.0077 68.8504C67.234 69.6004 68.7287 69.9754 70.07 69.9754C72.7909 69.9754 75.4352 68.4754 76.8532 66.0754L79.5359 61.5754C80.9155 59.0629 81.0305 56.2128 79.6125 53.8879Z" fill="#0EA036"/>
</svg>
