<svg width="24" height="24" viewBox="0 0 24 24" fill="none" xmlns="http://www.w3.org/2000/svg">
<g clip-path="url(#clip0)">
<path fill-rule="evenodd" clip-rule="evenodd" d="M9.06307 19.9132C6.60088 19.9581 5.58776 20.5685 4.74146 22.5344C10.1965 22.5344 15.6517 22.5344 21.1067 22.5344C21.4513 20.4277 18.8428 19.3202 17.4938 21.6488C16.7996 17.1862 9.54937 17.2793 9.06307 19.9132ZM9.1601 10.077C-0.0193171 9.80946 2.58995 6.10204 0 1.69409C5.99839 0.936336 11.6154 2.36843 10.194 9.52614C11.076 11.7886 12.1216 13.1443 12.5107 17.6766C12.1441 17.6067 11.7779 17.6336 11.4007 17.709C11.2974 12.7632 9.77488 10.3215 9.1601 10.077ZM13.8457 17.7681C13.4356 17.6498 13.0417 17.6337 12.5886 17.6661C14.8957 9.5958 17.8703 6.16643 22.7328 3.03809C18.4368 5.36858 16.8321 6.85438 14.6085 10.3181C13.4072 2.02234 18.8347 3.73102 23.953 1.78102C22.074 6.55248 23.8686 13.7302 16.3592 11.145C15.3228 12.2415 13.9159 15.3684 13.8457 17.7681Z" fill="#0F9333"/>
</g>
<defs>
<clipPath id="clip0">
<rect width="24" height="24" fill="white"/>
</clipPath>
</defs>
</svg>
