<svg width="283" height="32" viewBox="0 0 283 32" fill="none" xmlns="http://www.w3.org/2000/svg">
<g clip-path="url(#clip0)">
<path fill-rule="evenodd" clip-rule="evenodd" d="M9.06307 23.9132C6.60088 23.9581 5.58776 24.5685 4.74146 26.5344C10.1965 26.5344 15.6517 26.5344 21.1067 26.5344C21.4513 24.4277 18.8428 23.3202 17.4938 25.6488C16.7996 21.1862 9.54937 21.2793 9.06307 23.9132ZM9.1601 14.077C-0.0193171 13.8095 2.58995 10.102 0 5.69409C5.99839 4.93634 11.6154 6.36843 10.194 13.5261C11.076 15.7886 12.1216 17.1443 12.5107 21.6766C12.1441 21.6067 11.7779 21.6336 11.4007 21.709C11.2974 16.7632 9.77488 14.3215 9.1601 14.077ZM13.8457 21.7681C13.4356 21.6498 13.0417 21.6337 12.5886 21.6661C14.8957 13.5958 17.8703 10.1664 22.7328 7.03809C18.4368 9.36858 16.8321 10.8544 14.6085 14.3181C13.4072 6.02234 18.8347 7.73102 23.953 5.78102C22.074 10.5525 23.8686 17.7302 16.3592 15.145C15.3228 16.2415 13.9159 19.3684 13.8457 21.7681Z" fill="#0F9333"/>
</g>
<path d="M41.4 24H43.49V18.83H47.22C47.3533 18.83 47.5233 18.8233 47.73 18.81C47.9433 18.7967 48.1433 18.7767 48.33 18.75C49.53 18.5567 50.43 18.0433 51.03 17.21C51.6367 16.3767 51.94 15.3767 51.94 14.21C51.94 13.0433 51.64 12.0433 51.04 11.21C50.44 10.3767 49.5367 9.86667 48.33 9.68C48.1433 9.64667 47.9467 9.62667 47.74 9.62C47.5333 9.60667 47.36 9.6 47.22 9.6H41.4V24ZM43.49 16.85V11.57H47.14C47.2733 11.57 47.42 11.5767 47.58 11.59C47.7467 11.6033 47.9033 11.63 48.05 11.67C48.69 11.8167 49.1433 12.1433 49.41 12.65C49.6767 13.1567 49.81 13.6767 49.81 14.21C49.81 14.7367 49.6767 15.2567 49.41 15.77C49.1433 16.2767 48.69 16.6067 48.05 16.76C47.9033 16.7933 47.7467 16.8167 47.58 16.83C47.42 16.8433 47.2733 16.85 47.14 16.85H43.49ZM54.1391 24H56.2291V9.3H54.1391V24ZM62.282 24.3C64.002 24.3 65.2987 23.6767 66.172 22.43V24H68.022V17.35C68.022 16.8967 68.002 16.4733 67.962 16.08C67.922 15.6867 67.8154 15.3133 67.642 14.96C67.3087 14.2467 66.782 13.7267 66.062 13.4C65.3487 13.0667 64.5087 12.9 63.542 12.9C62.2954 12.9 61.2954 13.1733 60.542 13.72C59.7887 14.2667 59.282 15.0033 59.022 15.93L60.972 16.53C61.1587 15.93 61.4887 15.4967 61.962 15.23C62.4354 14.9633 62.9554 14.83 63.522 14.83C64.362 14.83 64.9687 15.01 65.342 15.37C65.722 15.7233 65.9287 16.2733 65.962 17.02C65.082 17.14 64.222 17.2667 63.382 17.4C62.542 17.5267 61.8087 17.68 61.182 17.86C60.3487 18.1267 59.7154 18.5233 59.282 19.05C58.8487 19.5767 58.632 20.2467 58.632 21.06C58.632 21.6467 58.7687 22.1867 59.042 22.68C59.322 23.1667 59.732 23.56 60.272 23.86C60.8187 24.1533 61.4887 24.3 62.282 24.3ZM62.652 22.59C61.9854 22.59 61.492 22.4367 61.172 22.13C60.8587 21.8233 60.702 21.46 60.702 21.04C60.702 20.6133 60.842 20.2767 61.122 20.03C61.4087 19.7833 61.7654 19.5867 62.192 19.44C62.6454 19.3067 63.1787 19.19 63.792 19.09C64.412 18.99 65.1287 18.88 65.942 18.76C65.9354 19.0133 65.9187 19.2967 65.892 19.61C65.8654 19.9233 65.8087 20.2033 65.722 20.45C65.642 20.8033 65.472 21.1433 65.212 21.47C64.9587 21.7967 64.6154 22.0667 64.182 22.28C63.7554 22.4867 63.2454 22.59 62.652 22.59ZM70.6088 24H72.7288V18.38C72.7288 17.5267 72.8521 16.8467 73.0988 16.34C73.3521 15.8267 73.6854 15.4567 74.0988 15.23C74.5121 15.0033 74.9688 14.89 75.4688 14.89C76.0421 14.89 76.5088 15.0067 76.8688 15.24C77.2288 15.4733 77.5054 15.78 77.6988 16.16C77.8921 16.54 78.0221 16.9533 78.0888 17.4C78.1621 17.84 78.1988 18.27 78.1988 18.69V24H80.3188V18C80.3188 17.6667 80.2888 17.28 80.2288 16.84C80.1688 16.4 80.0554 15.95 79.8888 15.49C79.7221 15.03 79.4788 14.6067 79.1588 14.22C78.8454 13.8267 78.4354 13.51 77.9288 13.27C77.4221 13.03 76.7954 12.91 76.0488 12.91C75.2688 12.91 74.5754 13.05 73.9688 13.33C73.3688 13.61 72.8721 13.9967 72.4788 14.49V13.2H70.6088V24ZM89.1034 24V22.23C88.3968 22.3367 87.7801 22.36 87.2534 22.3C86.7334 22.2333 86.3534 21.9967 86.1134 21.59C85.9868 21.37 85.9168 21.1 85.9034 20.78C85.8968 20.46 85.8934 20.0833 85.8934 19.65V14.88H89.1034V13.2H85.8934V10.2H83.7934V13.2H81.7234V14.88H83.7934V19.75C83.7934 20.3367 83.8001 20.8633 83.8134 21.33C83.8334 21.79 83.9601 22.2433 84.1934 22.69C84.4601 23.19 84.8501 23.5567 85.3634 23.79C85.8768 24.0233 86.4601 24.15 87.1134 24.17C87.7668 24.19 88.4301 24.1333 89.1034 24ZM94.4305 24.3C96.1505 24.3 97.4471 23.6767 98.3205 22.43V24H100.17V17.35C100.17 16.8967 100.15 16.4733 100.11 16.08C100.07 15.6867 99.9638 15.3133 99.7905 14.96C99.4571 14.2467 98.9305 13.7267 98.2105 13.4C97.4971 13.0667 96.6571 12.9 95.6905 12.9C94.4438 12.9 93.4438 13.1733 92.6905 13.72C91.9371 14.2667 91.4305 15.0033 91.1705 15.93L93.1205 16.53C93.3071 15.93 93.6371 15.4967 94.1105 15.23C94.5838 14.9633 95.1038 14.83 95.6705 14.83C96.5105 14.83 97.1171 15.01 97.4905 15.37C97.8705 15.7233 98.0771 16.2733 98.1105 17.02C97.2305 17.14 96.3705 17.2667 95.5305 17.4C94.6905 17.5267 93.9571 17.68 93.3305 17.86C92.4971 18.1267 91.8638 18.5233 91.4305 19.05C90.9971 19.5767 90.7805 20.2467 90.7805 21.06C90.7805 21.6467 90.9171 22.1867 91.1905 22.68C91.4705 23.1667 91.8805 23.56 92.4205 23.86C92.9671 24.1533 93.6371 24.3 94.4305 24.3ZM94.8005 22.59C94.1338 22.59 93.6405 22.4367 93.3205 22.13C93.0071 21.8233 92.8505 21.46 92.8505 21.04C92.8505 20.6133 92.9905 20.2767 93.2705 20.03C93.5571 19.7833 93.9138 19.5867 94.3405 19.44C94.7938 19.3067 95.3271 19.19 95.9405 19.09C96.5605 18.99 97.2771 18.88 98.0905 18.76C98.0838 19.0133 98.0671 19.2967 98.0405 19.61C98.0138 19.9233 97.9571 20.2033 97.8705 20.45C97.7905 20.8033 97.6205 21.1433 97.3605 21.47C97.1071 21.7967 96.7638 22.0667 96.3305 22.28C95.9038 22.4867 95.3938 22.59 94.8005 22.59ZM108.947 24V22.23C108.241 22.3367 107.624 22.36 107.097 22.3C106.577 22.2333 106.197 21.9967 105.957 21.59C105.831 21.37 105.761 21.1 105.747 20.78C105.741 20.46 105.737 20.0833 105.737 19.65V14.88H108.947V13.2H105.737V10.2H103.637V13.2H101.567V14.88H103.637V19.75C103.637 20.3367 103.644 20.8633 103.657 21.33C103.677 21.79 103.804 22.2433 104.037 22.69C104.304 23.19 104.694 23.5567 105.207 23.79C105.721 24.0233 106.304 24.15 106.957 24.17C107.611 24.19 108.274 24.1333 108.947 24ZM111.424 11.43H113.514V9.4H111.424V11.43ZM111.424 24H113.514V13.2H111.424V24ZM121.207 24.3C122.281 24.3 123.214 24.06 124.007 23.58C124.801 23.0933 125.414 22.4233 125.847 21.57C126.287 20.71 126.507 19.7167 126.507 18.59C126.507 17.4767 126.291 16.4933 125.857 15.64C125.424 14.78 124.811 14.11 124.017 13.63C123.224 13.1433 122.287 12.9 121.207 12.9C120.147 12.9 119.221 13.14 118.427 13.62C117.634 14.1 117.017 14.7667 116.577 15.62C116.137 16.4733 115.917 17.4633 115.917 18.59C115.917 19.7033 116.134 20.69 116.567 21.55C117.001 22.41 117.611 23.0833 118.397 23.57C119.191 24.0567 120.127 24.3 121.207 24.3ZM121.207 22.33C120.201 22.33 119.437 21.9933 118.917 21.32C118.397 20.64 118.137 19.73 118.137 18.59C118.137 17.49 118.387 16.5967 118.887 15.91C119.387 15.2167 120.161 14.87 121.207 14.87C122.227 14.87 122.994 15.2067 123.507 15.88C124.027 16.5533 124.287 17.4567 124.287 18.59C124.287 19.6967 124.031 20.5967 123.517 21.29C123.011 21.9833 122.241 22.33 121.207 22.33ZM128.695 24H130.815V18.38C130.815 17.5267 130.938 16.8467 131.185 16.34C131.438 15.8267 131.771 15.4567 132.185 15.23C132.598 15.0033 133.055 14.89 133.555 14.89C134.128 14.89 134.595 15.0067 134.955 15.24C135.315 15.4733 135.591 15.78 135.785 16.16C135.978 16.54 136.108 16.9533 136.175 17.4C136.248 17.84 136.285 18.27 136.285 18.69V24H138.405V18C138.405 17.6667 138.375 17.28 138.315 16.84C138.255 16.4 138.141 15.95 137.975 15.49C137.808 15.03 137.565 14.6067 137.245 14.22C136.931 13.8267 136.521 13.51 136.015 13.27C135.508 13.03 134.881 12.91 134.135 12.91C133.355 12.91 132.661 13.05 132.055 13.33C131.455 13.61 130.958 13.9967 130.565 14.49V13.2H128.695V24ZM145.013 24H154.213V22.03H147.103V17.58H153.013V15.61H147.103V11.57H154.213V9.6H145.013V24ZM155.415 24H157.905L160.675 20.17L163.425 24H165.915L161.865 18.54L165.815 13.2H163.335L160.675 16.91L157.985 13.2H155.505L159.455 18.54L155.415 24ZM171.743 24.3C172.903 24.3 173.889 24.02 174.703 23.46C175.516 22.9 176.099 22.09 176.453 21.03L174.333 20.53C174.113 21.11 173.793 21.5567 173.373 21.87C172.959 22.1767 172.416 22.33 171.743 22.33C170.756 22.33 170.009 21.9867 169.503 21.3C169.003 20.6133 168.749 19.7133 168.743 18.6C168.749 17.52 168.993 16.63 169.473 15.93C169.959 15.2233 170.716 14.87 171.743 14.87C172.349 14.87 172.886 15.04 173.353 15.38C173.826 15.7133 174.166 16.1833 174.373 16.79L176.453 16.19C176.186 15.1767 175.633 14.3767 174.793 13.79C173.959 13.1967 172.953 12.9 171.773 12.9C170.686 12.9 169.749 13.1433 168.963 13.63C168.183 14.1167 167.583 14.79 167.163 15.65C166.743 16.5033 166.529 17.4867 166.523 18.6C166.529 19.6933 166.736 20.67 167.143 21.53C167.556 22.39 168.149 23.0667 168.923 23.56C169.703 24.0533 170.643 24.3 171.743 24.3ZM182.987 24.3C184.034 24.3 184.984 24.0367 185.837 23.51C186.69 22.9767 187.327 22.2267 187.747 21.26L185.697 20.61C185.15 21.7567 184.214 22.33 182.887 22.33C181.98 22.33 181.267 22.0567 180.747 21.51C180.227 20.9633 179.924 20.19 179.837 19.19H187.887C187.96 17.8967 187.807 16.78 187.427 15.84C187.047 14.9 186.47 14.1767 185.697 13.67C184.924 13.1567 183.987 12.9 182.887 12.9C181.834 12.9 180.91 13.1367 180.117 13.61C179.324 14.0833 178.704 14.7533 178.257 15.62C177.817 16.4867 177.597 17.51 177.597 18.69C177.597 19.8033 177.82 20.7833 178.267 21.63C178.72 22.47 179.35 23.1267 180.157 23.6C180.97 24.0667 181.914 24.3 182.987 24.3ZM182.967 14.75C184.6 14.75 185.527 15.6867 185.747 17.56H179.887C180.02 16.6467 180.344 15.95 180.857 15.47C181.37 14.99 182.074 14.75 182.967 14.75ZM190.33 24H192.42V9.3H190.33V24ZM195.623 24H197.713V9.3H195.623V24ZM205.506 24.3C206.553 24.3 207.503 24.0367 208.356 23.51C209.21 22.9767 209.846 22.2267 210.266 21.26L208.216 20.61C207.67 21.7567 206.733 22.33 205.406 22.33C204.5 22.33 203.786 22.0567 203.266 21.51C202.746 20.9633 202.443 20.19 202.356 19.19H210.406C210.48 17.8967 210.326 16.78 209.946 15.84C209.566 14.9 208.99 14.1767 208.216 13.67C207.443 13.1567 206.506 12.9 205.406 12.9C204.353 12.9 203.43 13.1367 202.636 13.61C201.843 14.0833 201.223 14.7533 200.776 15.62C200.336 16.4867 200.116 17.51 200.116 18.69C200.116 19.8033 200.34 20.7833 200.786 21.63C201.24 22.47 201.87 23.1267 202.676 23.6C203.49 24.0667 204.433 24.3 205.506 24.3ZM205.486 14.75C207.12 14.75 208.046 15.6867 208.266 17.56H202.406C202.54 16.6467 202.863 15.95 203.376 15.47C203.89 14.99 204.593 14.75 205.486 14.75ZM212.347 24H214.467V18.38C214.467 17.5267 214.59 16.8467 214.837 16.34C215.09 15.8267 215.424 15.4567 215.837 15.23C216.25 15.0033 216.707 14.89 217.207 14.89C217.78 14.89 218.247 15.0067 218.607 15.24C218.967 15.4733 219.244 15.78 219.437 16.16C219.63 16.54 219.76 16.9533 219.827 17.4C219.9 17.84 219.937 18.27 219.937 18.69V24H222.057V18C222.057 17.6667 222.027 17.28 221.967 16.84C221.907 16.4 221.794 15.95 221.627 15.49C221.46 15.03 221.217 14.6067 220.897 14.22C220.584 13.8267 220.174 13.51 219.667 13.27C219.16 13.03 218.534 12.91 217.787 12.91C217.007 12.91 216.314 13.05 215.707 13.33C215.107 13.61 214.61 13.9967 214.217 14.49V13.2H212.347V24ZM229.145 24.3C230.305 24.3 231.292 24.02 232.105 23.46C232.918 22.9 233.502 22.09 233.855 21.03L231.735 20.53C231.515 21.11 231.195 21.5567 230.775 21.87C230.362 22.1767 229.818 22.33 229.145 22.33C228.158 22.33 227.412 21.9867 226.905 21.3C226.405 20.6133 226.152 19.7133 226.145 18.6C226.152 17.52 226.395 16.63 226.875 15.93C227.362 15.2233 228.118 14.87 229.145 14.87C229.752 14.87 230.288 15.04 230.755 15.38C231.228 15.7133 231.568 16.1833 231.775 16.79L233.855 16.19C233.588 15.1767 233.035 14.3767 232.195 13.79C231.362 13.1967 230.355 12.9 229.175 12.9C228.088 12.9 227.152 13.1433 226.365 13.63C225.585 14.1167 224.985 14.79 224.565 15.65C224.145 16.5033 223.932 17.4867 223.925 18.6C223.932 19.6933 224.138 20.67 224.545 21.53C224.958 22.39 225.552 23.0667 226.325 23.56C227.105 24.0533 228.045 24.3 229.145 24.3ZM240.389 24.3C241.436 24.3 242.386 24.0367 243.239 23.51C244.093 22.9767 244.729 22.2267 245.149 21.26L243.099 20.61C242.553 21.7567 241.616 22.33 240.289 22.33C239.383 22.33 238.669 22.0567 238.149 21.51C237.629 20.9633 237.326 20.19 237.239 19.19H245.289C245.363 17.8967 245.209 16.78 244.829 15.84C244.449 14.9 243.873 14.1767 243.099 13.67C242.326 13.1567 241.389 12.9 240.289 12.9C239.236 12.9 238.313 13.1367 237.519 13.61C236.726 14.0833 236.106 14.7533 235.659 15.62C235.219 16.4867 234.999 17.51 234.999 18.69C234.999 19.8033 235.223 20.7833 235.669 21.63C236.123 22.47 236.753 23.1267 237.559 23.6C238.373 24.0667 239.316 24.3 240.389 24.3ZM240.369 14.75C242.003 14.75 242.929 15.6867 243.149 17.56H237.289C237.423 16.6467 237.746 15.95 238.259 15.47C238.773 14.99 239.476 14.75 240.369 14.75Z" fill="#2F353B"/>
<defs>
<clipPath id="clip0">
<rect width="24" height="24" fill="white" transform="translate(0 4)"/>
</clipPath>
</defs>
</svg>
